<svg width="24" height="26" viewBox="0 0 24 26" fill="none" xmlns="http://www.w3.org/2000/svg">
<g id="Notification">
<g id="Notification - Light 24px">
<g id="Notification_2">
<g id="Group 3">
<mask id="mask0_1481_2653" style="mask-type:luminance" maskUnits="userSpaceOnUse" x="3" y="3" width="18" height="17">
<path id="Clip 2" fill-rule="evenodd" clip-rule="evenodd" d="M3 3.41177H21V19.5494H3V3.41177Z" fill="white"/>
</mask>
<g mask="url(#mask0_1481_2653)">
<path id="Fill 1" fill-rule="evenodd" clip-rule="evenodd" d="M11.9986 4.80712C8.5975 4.80712 6.22695 7.35409 6.22695 9.63967C6.22695 11.5736 5.66545 12.4676 5.16915 13.2564C4.77114 13.8899 4.45682 14.3904 4.45682 15.4778C4.61933 17.2322 5.83088 18.1541 11.9986 18.1541C18.1323 18.1541 19.3818 17.1913 19.5433 15.4173C19.5404 14.3904 19.2261 13.8899 18.8281 13.2564C18.3318 12.4676 17.7703 11.5736 17.7703 9.63967C17.7703 7.35409 15.3997 4.80712 11.9986 4.80712M11.9986 19.5494C7.44821 19.5494 3.33574 19.2424 3.00001 15.5373C2.99709 14.0043 3.48658 13.2248 3.91865 12.5383C4.35559 11.8424 4.76723 11.1866 4.76723 9.63966C4.76723 6.63223 7.67301 3.41177 11.9986 3.41177C16.3242 3.41177 19.23 6.63223 19.23 9.63966C19.23 11.1866 19.6416 11.8424 20.0785 12.5383C20.5106 13.2248 21.0001 14.0043 21.0001 15.4778C20.6605 19.2424 16.549 19.5494 11.9986 19.5494" fill="white"/>
</g>
</g>
<path id="Fill 4" fill-rule="evenodd" clip-rule="evenodd" d="M11.9511 23.4118H11.9491C10.8582 23.4108 9.82573 22.9513 9.04236 22.1169C8.7728 21.8313 8.79713 21.3894 9.09685 21.1327C9.39658 20.8741 9.85785 20.8974 10.1274 21.1848C10.6315 21.7215 11.2786 22.0164 11.9501 22.0164H11.9511C12.6254 22.0164 13.2755 21.7215 13.7806 21.1839C14.0511 20.8983 14.5123 20.875 14.8111 21.1327C15.1108 21.3904 15.1352 21.8322 14.8656 22.1178C14.0793 22.9522 13.0449 23.4118 11.9511 23.4118" fill="white"/>
</g>
</g>
<circle id="Ellipse 117" cx="18" cy="5" r="5" fill="#FEBC11"/>
</g>
</svg>
