<svg width="25" height="40" viewBox="0 0 25 40" fill="none" xmlns="http://www.w3.org/2000/svg">
<g id="Group">
<g id="Group_2">
<g id="Group_3">
<path id="Vector" opacity="0.5" d="M17.453 29.1671H7.4647C7.00471 29.1671 6.63135 29.727 6.63135 30.417C6.63135 31.107 7.00385 31.667 7.4647 31.667H17.453C17.913 31.667 18.2864 31.107 18.2864 30.417C18.2864 29.727 17.913 29.1671 17.453 29.1671Z" fill="white"/>
<path id="Vector_2" opacity="0.5" d="M17.453 33.3336H7.4647C7.00471 33.3336 6.63135 33.8936 6.63135 34.5836C6.63135 35.2736 7.00385 35.8336 7.4647 35.8336H17.453C17.913 35.8336 18.2864 35.2736 18.2864 34.5836C18.2864 33.8936 17.913 33.3336 17.453 33.3336Z" fill="white"/>
<path id="Vector_3" opacity="0.5" d="M14.9579 37.5002H9.95798C9.49799 37.5002 9.12463 38.0602 9.12463 38.7502C9.12463 39.4402 9.49713 40.0002 9.95798 40.0002H14.9579C15.4179 40.0002 15.7913 39.4402 15.7913 38.7502C15.7913 38.0602 15.4154 37.5002 14.9579 37.5002Z" fill="white"/>
<path id="Vector_4" d="M23.9721 8.42779C23.6662 7.61693 22.9512 5.71781 21.2221 3.88446C19.398 1.95034 17.2271 0.717846 14.7688 0.22699C13.2436 -0.0756635 11.674 -0.0756635 10.1488 0.22699C7.69383 0.718627 5.52221 1.94862 3.69551 3.8836C1.97216 5.70859 1.25217 7.61357 0.945531 8.42693C0.556393 9.45942 -0.168601 11.3803 0.0355378 13.9069C0.260536 16.6869 1.47053 18.7177 1.86888 19.3852C2.11888 19.7977 2.61888 20.586 3.62301 22.001C3.87301 22.3585 4.09215 22.651 4.27964 22.9052C4.74628 23.5385 5.00378 23.8877 5.26878 24.4385C5.63041 25.1899 5.89666 25.9836 6.06127 26.801C6.14041 27.1887 6.48134 27.4673 6.87712 27.4676H18.0412C18.4425 27.4671 18.7865 27.1806 18.8595 26.786C19.0079 25.9749 19.2714 25.1892 19.642 24.4527C19.932 23.8793 20.1995 23.5127 20.6854 22.846C20.8612 22.6052 21.0612 22.3302 21.2995 21.9952C21.9904 21.0218 22.5879 20.1811 23.0495 19.3811C23.4911 18.6311 24.6645 16.6311 24.8828 13.9052C25.0813 11.3745 24.3596 9.45778 23.9721 8.42779Z" fill="white"/>
</g>
</g>
</g>
</svg>
