<svg width="40" height="40" viewBox="0 0 40 40" fill="none" xmlns="http://www.w3.org/2000/svg">
<g id="Icon" clip-path="url(#clip0_1255_3018)">
<path id="Vector" opacity="0.5" d="M32.476 15.5704C32.246 15.2129 31.8511 15.0004 31.4286 15.0004H22.6787V1.25056C22.6787 0.660567 22.2662 0.150574 21.6887 0.0280758C21.1012 -0.0969225 20.5262 0.205573 20.2862 0.743066L10.2863 23.2428C10.1139 23.6277 10.1514 24.0777 10.3813 24.4302C10.6113 24.7852 11.0063 25.0002 11.4288 25.0002H20.1787V38.75C20.1787 39.34 20.5912 39.85 21.1687 39.9725C21.2562 39.99 21.3437 40 21.4287 40C21.9137 40 22.3662 39.7175 22.5712 39.2575L32.571 16.7578C32.741 16.3703 32.7085 15.9254 32.476 15.5704Z" fill="white"/>
<path id="Vector_2" d="M29.4401 15.5703C29.2101 15.2128 28.8151 15.0003 28.3926 15.0003H19.6427V1.25053C19.6427 0.660537 19.2302 0.150544 18.6527 0.0280453C18.0653 -0.096953 17.4903 0.205543 17.2503 0.743035L7.2504 23.2427C7.0779 23.6277 7.1154 24.0777 7.3454 24.4302C7.57539 24.7852 7.97039 25.0002 8.39288 25.0002H17.1428V38.75C17.1428 39.34 17.5553 39.85 18.1328 39.9725C18.2203 39.99 18.3077 40 18.3927 40C18.8777 40 19.3302 39.7175 19.5352 39.2575L29.5351 16.7578C29.7051 16.3703 29.6726 15.9253 29.4401 15.5703Z" fill="white"/>
</g>
<defs>
<clipPath id="clip0_1255_3018">
<rect width="40" height="40" fill="white"/>
</clipPath>
</defs>
</svg>
