<svg width="28" height="28" viewBox="0 0 28 28" fill="none" xmlns="http://www.w3.org/2000/svg">
<g id="Icon" clip-path="url(#clip0_1474_2645)">
<g id="Group">
<g id="Group_2">
<g id="Group_3">
<path id="Vector" opacity="0.5" d="M17.4962 20.4169H10.5044C10.1824 20.4169 9.92108 20.8089 9.92108 21.2919C9.92108 21.7749 10.1818 22.1669 10.5044 22.1669H17.4962C17.8182 22.1669 18.0796 21.7749 18.0796 21.2919C18.0796 20.8089 17.8182 20.4169 17.4962 20.4169Z" fill="#232440"/>
<path id="Vector_2" opacity="0.5" d="M17.4962 23.3335H10.5044C10.1824 23.3335 9.92108 23.7255 9.92108 24.2085C9.92108 24.6915 10.1818 25.0835 10.5044 25.0835H17.4962C17.8182 25.0835 18.0796 24.6915 18.0796 24.2085C18.0796 23.7255 17.8182 23.3335 17.4962 23.3335Z" fill="#232440"/>
<path id="Vector_3" opacity="0.5" d="M15.7497 26.2501H12.2497C11.9277 26.2501 11.6664 26.6421 11.6664 27.1251C11.6664 27.6081 11.9271 28.0001 12.2497 28.0001H15.7497C16.0717 28.0001 16.333 27.6081 16.333 27.1251C16.333 26.6421 16.0699 26.2501 15.7497 26.2501Z" fill="#232440"/>
<path id="Vector_4" d="M22.0596 5.89942C21.8455 5.33182 21.345 4.00243 20.1346 2.71909C18.8577 1.3652 17.3381 0.502462 15.6173 0.158863C14.5497 -0.052995 13.4509 -0.052995 12.3833 0.158863C10.6648 0.503009 9.14466 1.364 7.86597 2.71849C6.65963 3.99598 6.15563 5.32947 5.94099 5.89882C5.66859 6.62156 5.16109 7.96615 5.30399 9.73479C5.46149 11.6808 6.30848 13.1024 6.58733 13.5696C6.76233 13.8584 7.11233 14.4102 7.81522 15.4007C7.99022 15.6509 8.14362 15.8557 8.27486 16.0336C8.60151 16.4769 8.78176 16.7213 8.96726 17.1069C9.2204 17.6329 9.40678 18.1885 9.522 18.7607C9.5774 19.0321 9.81605 19.2271 10.0931 19.2273H17.9079C18.1889 19.2269 18.4296 19.0264 18.4808 18.7502C18.5846 18.1824 18.7691 17.6324 19.0285 17.1168C19.2315 16.7155 19.4188 16.4588 19.7589 15.9922C19.882 15.8236 20.022 15.6311 20.1888 15.3966C20.6724 14.7152 21.0906 14.1267 21.4138 13.5667C21.7229 13.0417 22.5442 11.6417 22.6971 9.73364C22.836 7.96211 22.3308 6.62041 22.0596 5.89942Z" fill="#232440"/>
</g>
</g>
</g>
</g>
<defs>
<clipPath id="clip0_1474_2645">
<rect width="28" height="28" fill="white"/>
</clipPath>
</defs>
</svg>
