<svg width="40" height="40" viewBox="0 0 40 40" fill="none" xmlns="http://www.w3.org/2000/svg">
<g id="Icon">
<path id="Vector" d="M34.25 25.75C34.25 33.6666 27.8334 40 20 40C12.1666 40 5.75 33.6666 5.75 25.75C5.75 17.8334 20 0 20 0C20 0 34.25 17.9166 34.25 25.75Z" fill="white"/>
<path id="Vector_2" opacity="0.5" d="M20 36.2498C14.25 36.2498 9.5 31.5832 9.5 25.7498C9.5 25.0832 10.0834 24.4998 10.75 24.4998C11.4166 24.4998 12 25.0832 12 25.7498C12 30.1665 15.5834 33.7498 20 33.7498C20.6666 33.7498 21.25 34.3332 21.25 34.9998C21.25 35.6665 20.6666 36.2498 20 36.2498Z" fill="#84DBFF"/>
</g>
</svg>
