<svg width="40" height="40" viewBox="0 0 40 40" fill="none" xmlns="http://www.w3.org/2000/svg">
<g id="Icon" clip-path="url(#clip0_1255_3034)">
<path id="Vector" d="M31.8183 31.6666H16.8283C14.6667 31.6666 12.75 30.2483 12.165 28.2166L7.09833 11.0483C6.91833 10.4266 6.32 9.99993 5.63667 9.99993H1.66667C0.745 9.99993 0 9.25326 0 8.33326C0 7.41326 0.745 6.6666 1.66667 6.6666H5.63667C7.79833 6.6666 9.71333 8.08493 10.2983 10.1166L11.2467 13.3333H36.7383C37.7783 13.3333 38.765 13.8283 39.3767 14.6583C39.9833 15.4816 40.1583 16.5116 39.8567 17.4849L36.4183 28.3983C35.745 30.3683 33.9 31.6666 31.8183 31.6666ZM36.74 16.6666H36.7567H36.74Z" fill="white"/>
<path id="Vector_2" d="M18.3333 40C16.495 40 15 38.5049 15 36.6666C15 34.8283 16.495 33.3333 18.3333 33.3333C20.1717 33.3333 21.6667 34.8283 21.6667 36.6666C21.6667 38.5049 20.1717 40 18.3333 40ZM18.3333 36.6649V36.6666V36.6649Z" fill="white"/>
<path id="Vector_3" opacity="0.6" d="M30 40C28.1617 40 26.6667 38.5049 26.6667 36.6666C26.6667 34.8283 28.1617 33.3333 30 33.3333C31.8383 33.3333 33.3333 34.8283 33.3333 36.6666C33.3333 38.5049 31.8383 40 30 40ZM30 36.6649V36.6666V36.6649Z" fill="white"/>
</g>
<defs>
<clipPath id="clip0_1255_3034">
<rect width="40" height="40" fill="white"/>
</clipPath>
</defs>
</svg>
