<svg width="40" height="40" viewBox="0 0 40 40" fill="none" xmlns="http://www.w3.org/2000/svg">
<g id="Icon" clip-path="url(#clip0_1255_3031)">
<path id="Vector" opacity="0.5" d="M24.6875 40H15.3125C14.6648 40 14.1406 39.4759 14.1406 38.8281V31.2552L8.00086 35.5548C7.74797 35.7333 7.43438 35.8088 7.12539 35.7482C6.81984 35.6945 6.5475 35.5216 6.36891 35.2664L0.9925 27.5863C0.621719 27.0564 0.749922 26.3263 1.28086 25.9543L9.785 20L1.28094 14.0456C0.749922 13.6737 0.621719 12.9436 0.992578 12.4137L6.36891 4.73359C6.54742 4.47836 6.81977 4.30555 7.12539 4.2518C7.43438 4.19805 7.74797 4.26898 8.00086 4.44523L14.1406 8.74477V1.17188C14.1406 0.524141 14.6648 0 15.3125 0H24.6875C25.3352 0 25.8594 0.524141 25.8594 1.17188V8.74477L31.9991 4.44523C32.2532 4.26898 32.5679 4.19805 32.8746 4.2518C33.1802 4.30555 33.4525 4.47836 33.6311 4.73359L39.0075 12.4137C39.3783 12.9436 39.2501 13.6737 38.7191 14.0457L30.215 20L38.7191 25.9544C39.2502 26.3263 39.3784 27.0564 39.0075 27.5863L33.6311 35.2665C33.4526 35.5217 33.1802 35.6945 32.8746 35.7483C32.5679 35.8089 32.2532 35.7334 31.9991 35.5548L25.8594 31.2552V38.8281C25.8594 39.4759 25.3352 40 24.6875 40Z" fill="white"/>
<path id="Vector_2" d="M39.0075 12.4137L33.6311 4.73359C33.4526 4.47836 33.1802 4.30555 32.8746 4.2518C32.5679 4.19805 32.2532 4.26898 31.9991 4.44523L25.8594 8.74477V1.17188C25.8594 0.524141 25.3352 0 24.6875 0H20V40H24.6875C25.3352 40 25.8594 39.4759 25.8594 38.8281V31.2552L31.9991 35.5548C32.2532 35.7333 32.5679 35.8088 32.8746 35.7482C33.1802 35.6945 33.4525 35.5216 33.6311 35.2664L39.0075 27.5863C39.3783 27.0564 39.2501 26.3263 38.7191 25.9543L30.215 20L38.7191 14.0456C39.2501 13.6737 39.3783 12.9436 39.0075 12.4137Z" fill="white"/>
</g>
<defs>
<clipPath id="clip0_1255_3031">
<rect width="40" height="40" fill="white"/>
</clipPath>
</defs>
</svg>
