<svg width="40" height="40" viewBox="0 0 40 40" fill="none" xmlns="http://www.w3.org/2000/svg">
<g id="Icon">
<rect id="Rectangle 284" opacity="0.5" x="7.14288" y="10" width="25.7143" height="17.1429" fill="white"/>
<path id="Vector" d="M37.3715 5.59829C37.2997 5.08256 36.9286 4.65834 36.427 4.5189L20.3503 0.0479652C20.1211 -0.0158256 19.8791 -0.0158256 19.6497 0.0479652L3.573 4.5189C3.07139 4.65834 2.70032 5.08239 2.62851 5.59829C2.53527 6.26879 0.408035 22.1112 5.86424 29.9924C11.314 37.8641 19.3536 39.8813 19.6931 39.9634C19.794 39.9878 19.8968 39.9999 20 39.9999C20.1032 39.9999 20.206 39.9877 20.3069 39.9634C20.6466 39.8813 28.6862 37.8641 34.1358 29.9924C39.592 22.1114 37.4648 6.26897 37.3715 5.59829ZM30.3674 14.8473L19.4015 25.8132C19.1463 26.0684 18.8117 26.1961 18.4772 26.1961C18.1428 26.1961 17.8081 26.0685 17.553 25.8132L10.7728 19.0331C10.5276 18.788 10.3899 18.4555 10.3899 18.1088C10.3899 17.7621 10.5278 17.4296 10.7728 17.1845L12.1191 15.8383C12.6296 15.328 13.4573 15.3278 13.9676 15.8383L18.4772 20.3479L27.1727 11.6523C27.4177 11.4071 27.7503 11.2694 28.0969 11.2694C28.4436 11.2694 28.7761 11.4071 29.0212 11.6523L30.3674 12.9986C30.8779 13.5091 30.8779 14.3368 30.3674 14.8473Z" fill="white"/>
</g>
</svg>
