<svg width="29" height="28" viewBox="0 0 29 28" fill="none" xmlns="http://www.w3.org/2000/svg">
<g id="Ticket - Bold 24px">
<g id="Ticket">
<path id="Ticket_2" fill-rule="evenodd" clip-rule="evenodd" d="M26.2447 12.2651C26.0822 12.4213 25.8617 12.5106 25.6296 12.5106C24.7708 12.5106 24.0745 13.18 24.0745 13.9944C24.0745 14.8144 24.7627 15.4805 25.6133 15.4894C26.0926 15.4939 26.5 15.8152 26.5 16.276V19.1377C26.5 21.5464 24.4691 23.5 21.9623 23.5H18.1789C17.7878 23.5 17.471 23.1954 17.471 22.8194V20.4096C17.471 19.941 17.088 19.5728 16.6006 19.5728C16.1248 19.5728 15.7302 19.941 15.7302 20.4096V22.8194C15.7302 23.1954 15.4133 23.5 15.0234 23.5H7.03772C4.54255 23.5 2.5 21.5476 2.5 19.1377V16.276C2.5 15.8152 2.90735 15.4939 3.38665 15.4894C4.23849 15.4805 4.92553 14.8144 4.92553 13.9944C4.92553 13.2023 4.25242 12.5998 3.37041 12.5998C3.1383 12.5998 2.91779 12.5106 2.75532 12.3544C2.59284 12.1982 2.5 11.9862 2.5 11.7631V8.87346C2.5 6.46806 4.5472 4.5 7.04932 4.5H15.0234C15.4133 4.5 15.7302 4.80458 15.7302 5.18056V8.0367C15.7302 8.49413 16.1248 8.87346 16.6006 8.87346C17.088 8.87346 17.471 8.49413 17.471 8.0367V5.18056C17.471 4.80458 17.7878 4.5 18.1789 4.5H21.9623C24.4691 4.5 26.5 6.45244 26.5 8.8623V11.6738C26.5 11.8969 26.4072 12.1089 26.2447 12.2651ZM16.6006 17.4084C17.0881 17.4084 17.471 17.0291 17.471 16.5716V12.1089C17.471 11.6515 17.0881 11.2722 16.6006 11.2722C16.1248 11.2722 15.7302 11.6515 15.7302 12.1089V16.5716C15.7302 17.0291 16.1248 17.4084 16.6006 17.4084Z" fill="white"/>
<rect id="Rectangle 295" opacity="0.5" x="7.29993" y="6.87502" width="4.11429" height="10.1786" rx="2.05714" fill="#665AF0"/>
</g>
</g>
</svg>
