<svg width="50" height="50" viewBox="0 0 50 50" fill="none" xmlns="http://www.w3.org/2000/svg">
<path fill-rule="evenodd" clip-rule="evenodd" d="M42.498 19.0542L43.9986 20.5542C45.1865 21.7208 45.8326 23.3042 45.8326 24.9708C45.8534 26.6375 45.2073 28.2229 44.0402 29.4083C44.0264 29.4236 44.0125 29.437 43.9986 29.4505C43.9916 29.4572 43.9847 29.4639 43.9777 29.4708L42.498 30.95C41.9145 31.5333 41.581 32.325 41.581 33.1604V35.3042C41.581 38.7625 38.7675 41.5771 35.3079 41.5771H33.1613C32.3277 41.5771 31.5357 41.9083 30.9522 42.4917L29.4516 43.9917C28.222 45.2229 26.6173 45.825 25.0125 45.825C23.4078 45.825 21.803 45.2229 20.5734 44.0146L19.052 42.4917C18.4685 41.9083 17.6765 41.5771 16.8429 41.5771H14.6963C11.2367 41.5771 8.42317 38.7625 8.42317 35.3042V33.1604C8.42317 32.325 8.08971 31.5333 7.50617 30.9292L6.00562 29.45C3.56724 27.0146 3.5464 23.0333 5.98478 20.5771L7.50617 19.0542C8.08971 18.4708 8.42317 17.6792 8.42317 16.825V14.7C8.42317 11.2417 11.2367 8.43126 14.6963 8.43126H16.8429C17.6765 8.43126 18.4685 8.09584 19.052 7.51251L20.5526 6.01251C22.9909 3.55626 26.9716 3.55626 29.4308 5.99376L30.9522 7.51251C31.5357 8.09584 32.3277 8.43126 33.1613 8.43126H35.3079C38.7675 8.43126 41.581 11.2417 41.581 14.7V16.8479C41.581 17.6792 41.9145 18.4708 42.498 19.0542ZM19.6356 32.1792C20.1357 32.1792 20.5942 31.9917 20.9277 31.6375L31.6399 20.9313C32.3485 20.2229 32.3485 19.0542 31.6399 18.3458C30.9313 17.6396 29.7851 17.6396 29.0765 18.3458L18.3643 29.0542C17.6557 29.7625 17.6557 30.9292 18.3643 31.6375C18.6977 31.9917 19.1562 32.1792 19.6356 32.1792ZM28.5346 30.3458C28.5346 31.3667 29.3474 32.1792 30.3686 32.1792C31.369 32.1792 32.1818 31.3667 32.1818 30.3458C32.1818 29.3479 31.369 28.5333 30.3686 28.5333C29.3474 28.5333 28.5346 29.3479 28.5346 30.3458ZM19.6564 17.825C20.6568 17.825 21.4696 18.6375 21.4696 19.6375C21.4696 20.6604 20.6568 21.4708 19.6564 21.4708C18.656 21.4708 17.8224 20.6604 17.8224 19.6375C17.8224 18.6375 18.656 17.825 19.6564 17.825Z" fill="white" stroke="#232440" stroke-width="2"/>
</svg>
