<svg id="home" width="24" height="24" viewBox="3 2 44 50" fill="none" xmlns="http://www.w3.org/2000/svg">
<path d="M19.0307 43.2779V36.9076C19.0307 35.2815 20.3586 33.9632 21.9967 33.9632H27.9845C28.7711 33.9632 29.5255 34.2734 30.0818 34.8256C30.638 35.3778 30.9505 36.1267 30.9505 36.9076V43.2779C30.9455 43.9539 31.2126 44.604 31.6924 45.0838C32.1722 45.5636 32.825 45.8334 33.506 45.8334H37.5912C39.4992 45.8383 41.3307 45.0893 42.6815 43.7518C44.0324 42.4142 44.7916 40.598 44.7916 38.7039V20.556C44.7915 19.026 44.1084 17.5748 42.9262 16.5931L29.0291 5.57481C26.6117 3.64292 23.1481 3.70529 20.8028 5.72295L7.22286 16.5931C5.98479 17.5458 5.24482 19.0014 5.20825 20.556V38.6854C5.20825 42.6331 8.43196 45.8334 12.4086 45.8334H16.4005C17.815 45.8334 18.9645 44.7005 18.9747 43.2964L19.0307 43.2779Z" fill="white" stroke="#232440" stroke-width="2"/>
</svg>
