<svg width="50" height="50" viewBox="0 0 50 50" fill="none" xmlns="http://www.w3.org/2000/svg">
<path d="M25.2237 4.27855C25.0829 4.20817 24.9172 4.20817 24.7765 4.27855L5.06118 14.1362C4.69265 14.3205 4.69265 14.8464 5.06118 15.0306L24.7765 24.8883C24.9172 24.9587 25.0829 24.9587 25.2237 24.8883L44.939 15.0306C45.3075 14.8464 45.3075 14.3205 44.939 14.1362L25.2237 4.27855Z" fill="white" stroke="#232440" stroke-width="2.5" stroke-linecap="round" stroke-linejoin="round"/>
<path d="M4.16675 35.4167L24.1057 45.3862C24.6687 45.6677 25.3315 45.6677 25.8945 45.3862L45.8334 35.4167" stroke="#232440" stroke-width="2.5" stroke-linecap="round" stroke-linejoin="round"/>
<path d="M4.16675 25L24.1057 34.9695C24.6687 35.251 25.3315 35.251 25.8945 34.9695L45.8334 25" stroke="#232440" stroke-width="2.5" stroke-linecap="round" stroke-linejoin="round"/>
</svg>
