<svg width="24" height="24" viewBox="0 0 24 24" fill="none" xmlns="http://www.w3.org/2000/svg">
<g id="Cardholder">
<path id="Vector" d="M19.8714 4.5H4.13107C3.50488 4.5 2.90434 4.74875 2.46155 5.19153C2.01877 5.63432 1.77002 6.23486 1.77002 6.86105V17.8793C1.77002 18.5054 2.01877 19.106 2.46155 19.5488C2.90434 19.9916 3.50488 20.2403 4.13107 20.2403H19.8714C20.4976 20.2403 21.0981 19.9916 21.5409 19.5488C21.9837 19.106 22.2324 18.5054 22.2324 17.8793V6.86105C22.2324 6.23486 21.9837 5.63432 21.5409 5.19153C21.0981 4.74875 20.4976 4.5 19.8714 4.5ZM3.34405 9.22209H20.6584V10.7961H15.8566C15.4938 10.7963 15.1422 10.9219 14.8612 11.1515C14.5803 11.3811 14.3874 11.7008 14.315 12.0563C14.2048 12.588 13.9147 13.0654 13.4936 13.4081C13.0725 13.7508 12.5461 13.9379 12.0032 13.9379C11.4602 13.9379 10.9339 13.7508 10.5128 13.4081C10.0917 13.0654 9.80158 12.588 9.69133 12.0563C9.61886 11.7001 9.42533 11.38 9.1436 11.1503C8.86188 10.9205 8.50933 10.7954 8.14583 10.7961H3.34405V9.22209ZM4.13107 6.07403H19.8714C20.0801 6.07403 20.2803 6.15695 20.4279 6.30454C20.5755 6.45214 20.6584 6.65232 20.6584 6.86105V7.64806H3.34405V6.86105C3.34405 6.65232 3.42697 6.45214 3.57456 6.30454C3.72216 6.15695 3.92234 6.07403 4.13107 6.07403ZM19.8714 18.6663H4.13107C3.92234 18.6663 3.72216 18.5834 3.57456 18.4358C3.42697 18.2882 3.34405 18.088 3.34405 17.8793V12.3702H8.14484C8.32595 13.2592 8.8087 14.0583 9.51136 14.6323C10.214 15.2062 11.0934 15.5197 12.0007 15.5197C12.908 15.5197 13.7874 15.2062 14.4901 14.6323C15.1928 14.0583 15.6755 13.2592 15.8566 12.3702H20.6584V17.8793C20.6584 18.088 20.5755 18.2882 20.4279 18.4358C20.2803 18.5834 20.0801 18.6663 19.8714 18.6663Z" fill="#232440"/>
</g>
</svg>
