<svg width="24" height="24" viewBox="0 0 24 24" fill="none" xmlns="http://www.w3.org/2000/svg">
<g id="Discount - Light 24px">
<g id="Discount">
<g id="Group 3">
<mask id="mask0_1129_1697" style="mask-type:luminance" maskUnits="userSpaceOnUse" x="2" y="2" width="21" height="21">
<path id="Clip 2" fill-rule="evenodd" clip-rule="evenodd" d="M2.00024 2.00024H22.003V22.0012H2.00024V2.00024Z" fill="white"/>
</mask>
<g mask="url(#mask0_1129_1697)">
<path id="Fill 1" fill-rule="evenodd" clip-rule="evenodd" d="M10.945 20.0756C11.535 20.6516 12.485 20.6446 13.071 20.0556L13.793 19.3356C14.353 18.7766 15.127 18.4576 15.916 18.4576H16.946C17.78 18.4576 18.458 17.7796 18.458 16.9466V15.9176C18.458 15.1166 18.768 14.3636 19.334 13.7966L20.054 13.0756C20.347 12.7816 20.504 12.4006 20.503 11.9966C20.502 11.5936 20.343 11.2146 20.056 10.9286L19.335 10.2066C18.768 9.63563 18.458 8.88363 18.458 8.08263V7.05563C18.458 6.22163 17.78 5.54363 16.946 5.54363H15.918C15.117 5.54363 14.364 5.23263 13.797 4.66963L13.075 3.94663C12.474 3.35163 11.515 3.35463 10.928 3.94563L10.209 4.66663C9.63497 5.23363 8.88197 5.54363 8.08397 5.54363H7.05497C6.22197 5.54463 5.54397 6.22263 5.54397 7.05563V8.08063C5.54397 8.88163 5.23297 9.63463 4.66897 10.2026L3.95897 10.9136C3.95197 10.9216 3.94497 10.9276 3.93797 10.9346C3.35097 11.5256 3.35397 12.4846 3.94497 13.0716L4.66697 13.7936C5.23297 14.3616 5.54397 15.1146 5.54397 15.9156V16.9466C5.54397 17.7796 6.22097 18.4576 7.05497 18.4576H8.08197C8.88397 18.4586 9.63697 18.7696 10.204 19.3346L10.925 20.0536C10.931 20.0606 10.938 20.0676 10.945 20.0756V20.0756ZM11.999 22.0016C11.232 22.0016 10.465 21.7116 9.87797 21.1296C9.86997 21.1216 9.86197 21.1136 9.85397 21.1046L9.14397 20.3956C8.86097 20.1146 8.48297 19.9586 8.08097 19.9576H7.05497C5.39397 19.9576 4.04397 18.6066 4.04397 16.9466V15.9156C4.04397 15.5136 3.88697 15.1366 3.60497 14.8526L2.88597 14.1346C1.71797 12.9726 1.70397 11.0806 2.85097 9.90063C2.85997 9.89163 2.86897 9.88263 2.87797 9.87363L3.60597 9.14363C3.88697 8.86063 4.04397 8.48163 4.04397 8.08063V7.05563C4.04397 5.39563 5.39397 4.04463 7.05397 4.04363H8.08397C8.48497 4.04363 8.86297 3.88663 9.14997 3.60363L9.86497 2.88663C11.034 1.70963 12.945 1.70363 14.124 2.87563L14.855 3.60663C15.138 3.88763 15.516 4.04363 15.918 4.04363H16.946C18.607 4.04363 19.958 5.39463 19.958 7.05563V8.08263C19.958 8.48363 20.114 8.86263 20.397 9.14763L21.115 9.86663C21.684 10.4316 22 11.1866 22.003 11.9916C22.006 12.7966 21.695 13.5536 21.128 14.1246L20.395 14.8556C20.114 15.1386 19.958 15.5156 19.958 15.9176V16.9466C19.958 18.6066 18.607 19.9576 16.947 19.9576H15.916C15.52 19.9576 15.133 20.1176 14.852 20.3966L14.134 21.1146C13.547 21.7056 12.773 22.0016 11.999 22.0016V22.0016Z" fill="#232440"/>
</g>
</g>
<path id="Fill 4" fill-rule="evenodd" clip-rule="evenodd" d="M9.43041 15.3217C9.23841 15.3217 9.04641 15.2487 8.90041 15.1017C8.60741 14.8087 8.60741 14.3347 8.90041 14.0417L14.0404 8.90066C14.3334 8.60766 14.8084 8.60766 15.1014 8.90066C15.3944 9.19366 15.3944 9.66866 15.1014 9.96166L9.96041 15.1017C9.81441 15.2487 9.62241 15.3217 9.43041 15.3217" fill="#232440"/>
<path id="Fill 6" fill-rule="evenodd" clip-rule="evenodd" d="M14.5035 15.4993C13.9505 15.4993 13.4985 15.0523 13.4985 14.4993C13.4985 13.9463 13.9415 13.4993 14.4945 13.4993H14.5035C15.0565 13.4993 15.5035 13.9463 15.5035 14.4993C15.5035 15.0523 15.0565 15.4993 14.5035 15.4993" fill="#232440"/>
<path id="Fill 8" fill-rule="evenodd" clip-rule="evenodd" d="M9.50354 10.4993C8.95054 10.4993 8.49854 10.0523 8.49854 9.49927C8.49854 8.94627 8.94154 8.49927 9.49454 8.49927H9.50354C10.0565 8.49927 10.5035 8.94627 10.5035 9.49927C10.5035 10.0523 10.0565 10.4993 9.50354 10.4993" fill="#232440"/>
</g>
</g>
</svg>
