<svg width="24" height="24" viewBox="0 0 24 24" fill="none" xmlns="http://www.w3.org/2000/svg">
<g id="FolderNotchPlus">
<path id="Vector" d="M12 10.9067C12.1989 10.9067 12.3897 10.9929 12.5303 11.1464C12.671 11.2999 12.75 11.5081 12.75 11.7252V13.3622H14.25C14.4489 13.3622 14.6397 13.4484 14.7803 13.6019C14.921 13.7554 15 13.9636 15 14.1807C15 14.3978 14.921 14.606 14.7803 14.7595C14.6397 14.913 14.4489 14.9992 14.25 14.9992H12.75V16.6363C12.75 16.8534 12.671 17.0615 12.5303 17.215C12.3897 17.3685 12.1989 17.4548 12 17.4548C11.8011 17.4548 11.6103 17.3685 11.4697 17.215C11.329 17.0615 11.25 16.8534 11.25 16.6363V14.9992H9.75C9.55109 14.9992 9.36032 14.913 9.21967 14.7595C9.07902 14.606 9 14.3978 9 14.1807C9 13.9636 9.07902 13.7554 9.21967 13.6019C9.36032 13.4484 9.55109 13.3622 9.75 13.3622H11.25V11.7252C11.25 11.5081 11.329 11.2999 11.4697 11.1464C11.6103 10.9929 11.8011 10.9067 12 10.9067ZM21.75 7.63261V19.0918C21.75 19.526 21.592 19.9424 21.3107 20.2494C21.0294 20.5564 20.6478 20.7288 20.25 20.7288H3.75C3.35218 20.7288 2.97064 20.5564 2.68934 20.2494C2.40804 19.9424 2.25 19.526 2.25 19.0918V5.17707C2.25 4.7429 2.40804 4.32652 2.68934 4.01951C2.97064 3.71251 3.35218 3.54004 3.75 3.54004H8.74969C9.07411 3.54092 9.38967 3.65571 9.64969 3.86744L12.2503 5.99558H20.25C20.6478 5.99558 21.0294 6.16805 21.3107 6.47506C21.592 6.78206 21.75 7.19844 21.75 7.63261ZM3.75 8.45113H8.74969L10.7503 6.8141L8.74969 5.17707H3.75V8.45113ZM20.25 7.63261H12.2503L9.64969 9.76075C9.38967 9.97248 9.07411 10.0873 8.74969 10.0882H3.75V19.0918H20.25V7.63261Z" fill="#232440"/>
</g>
</svg>
