<svg width="24" height="24" viewBox="0 0 24 24" fill="none" xmlns="http://www.w3.org/2000/svg">
<g id="Group 168">
<g id="Iconly/Light-Outline/2 User">
<g id="2 User">
<g id="Group 3">
<mask id="mask0_1342_3369" style="mask-type:luminance" maskUnits="userSpaceOnUse" x="2" y="14" width="16" height="7">
<path id="Clip 2" fill-rule="evenodd" clip-rule="evenodd" d="M2 14.2939H17.1998V20.9999H2V14.2939Z" fill="white"/>
</mask>
<g mask="url(#mask0_1342_3369)">
<path id="Fill 1" fill-rule="evenodd" clip-rule="evenodd" d="M9.59962 15.7108C6.8177 15.7108 3.50122 16.048 3.50122 17.6584C3.50122 18.9355 5.55338 19.5834 9.59962 19.5834C13.6459 19.5834 15.698 18.9289 15.698 17.6396C15.698 16.3597 13.6459 15.7108 9.59962 15.7108M9.59974 21.0003C7.52155 21.0003 1.99976 21.0003 1.99976 17.6584C1.99976 14.2939 7.71976 14.2939 9.59974 14.2939C12.8622 14.2939 17.1997 14.6406 17.1997 17.6396C17.1997 21.0003 11.4797 21.0003 9.59974 21.0003" fill="#232440"/>
</g>
</g>
<path id="Fill 4" fill-rule="evenodd" clip-rule="evenodd" d="M9.59978 4.41683C7.59268 4.41683 5.95996 5.9574 5.95996 7.85029C5.95996 9.74318 7.59268 11.2837 9.59978 11.2837H9.63082C10.5958 11.28 11.5048 10.922 12.1865 10.2731C12.8692 9.62605 13.2426 8.76556 13.2386 7.85312C13.2386 5.9574 11.6059 4.41683 9.59978 4.41683V4.41683ZM9.59989 12.7006C6.76492 12.7006 4.4585 10.5243 4.4585 7.85029C4.4585 5.17625 6.76492 3 9.59989 3C12.4339 3 14.7403 5.17625 14.7403 7.85029C14.7463 9.13866 14.2167 10.3552 13.2517 11.2715C12.2887 12.1886 11.0024 12.6959 9.63393 12.7006H9.59989Z" fill="#232440"/>
<path id="Fill 6" fill-rule="evenodd" clip-rule="evenodd" d="M16.4976 11.6255C16.1292 11.6255 15.8079 11.3695 15.7548 11.0153C15.6978 10.628 15.9831 10.2691 16.3935 10.2152C17.6428 10.0499 18.5858 9.027 18.5878 7.83497C18.5878 6.6505 17.6889 5.65116 16.4526 5.46036C16.0431 5.39613 15.7658 5.03247 15.8329 4.64615C15.9 4.25983 16.2874 4.00008 16.6948 4.06147C18.6619 4.36562 20.0894 5.95341 20.0894 7.83591C20.0854 9.72974 18.5868 11.3563 16.6027 11.6189C16.5677 11.6236 16.5326 11.6255 16.4976 11.6255" fill="#232440"/>
<g id="Group 10">
<mask id="mask1_1342_3369" style="mask-type:luminance" maskUnits="userSpaceOnUse" x="17" y="13" width="5" height="6">
<path id="Clip 9" fill-rule="evenodd" clip-rule="evenodd" d="M17.8618 13.8467H21.9999V18.5482H17.8618V13.8467Z" fill="white"/>
</mask>
<g mask="url(#mask1_1342_3369)">
<path id="Fill 8" fill-rule="evenodd" clip-rule="evenodd" d="M19.9142 18.5482C19.6109 18.5482 19.3256 18.3735 19.2125 18.0911C19.0654 17.7255 19.2606 17.3156 19.648 17.1777C20.4989 16.8735 20.4989 16.5023 20.4989 16.3436C20.4989 15.8081 19.8272 15.4416 18.5028 15.2555C18.0923 15.1969 17.809 14.8361 17.8701 14.4498C17.9322 14.0625 18.3216 13.8028 18.724 13.8528C21.4328 14.2354 22.0004 15.4189 22.0004 16.3436C22.0004 17.0322 21.6851 17.9645 20.1805 18.5019C20.0934 18.5331 20.0033 18.5482 19.9142 18.5482" fill="#232440"/>
</g>
</g>
</g>
</g>
</g>
</svg>
