<svg width="26" height="28" viewBox="0 0 26 28" fill="none" xmlns="http://www.w3.org/2000/svg">
<g id="Icon">
<g id="Wallet">
<path id="Fill 1" fill-rule="evenodd" clip-rule="evenodd" d="M23.333 17.6245H18.962C16.9136 17.6245 15.2464 15.9345 15.2453 13.8578C15.2453 11.7789 16.9125 10.0878 18.962 10.0867H23.333C23.7801 10.0867 24.1429 10.4547 24.1429 10.9081C24.1429 11.3616 23.7801 11.7296 23.333 11.7296H18.962C17.8055 11.7307 16.865 12.6847 16.865 13.8567C16.865 15.0276 17.8066 15.9816 18.962 15.9816H23.333C23.7801 15.9816 24.1429 16.3496 24.1429 16.803C24.1429 17.2565 23.7801 17.6245 23.333 17.6245" fill="#FEBC11"/>
<path id="Fill 3" fill-rule="evenodd" clip-rule="evenodd" d="M19.4561 14.6102H19.1192C18.6721 14.6102 18.3093 14.2422 18.3093 13.7888C18.3093 13.3353 18.6721 12.9673 19.1192 12.9673H19.4561C19.9031 12.9673 20.2659 13.3353 20.2659 13.7888C20.2659 14.2422 19.9031 14.6102 19.4561 14.6102" fill="#FEBC11"/>
<g id="Group 7">
<mask id="mask0_1466_2578" style="mask-type:luminance" maskUnits="userSpaceOnUse" x="1" y="3" width="24" height="22">
<path id="Clip 6" fill-rule="evenodd" clip-rule="evenodd" d="M1.85712 3.5H24.1427V24.5H1.85712V3.5Z" fill="white"/>
</mask>
<g mask="url(#mask0_1466_2578)">
<path id="Fill 5" fill-rule="evenodd" clip-rule="evenodd" d="M8.33336 5.14293C5.65546 5.14293 3.47642 7.35324 3.47642 10.0696V17.9305C3.47642 20.6469 5.65546 22.8572 8.33336 22.8572H17.6672C20.3451 22.8572 22.523 20.6469 22.523 17.9305V10.0696C22.523 7.35324 20.3451 5.14293 17.6672 5.14293H8.33336ZM17.6671 24.5001H8.33334C4.76244 24.5001 1.85669 21.5527 1.85669 17.9305V10.0696C1.85669 6.44635 4.76244 3.5 8.33334 3.5H17.6671C21.238 3.5 24.1427 6.44635 24.1427 10.0696V17.9305C24.1427 21.5527 21.238 24.5001 17.6671 24.5001V24.5001Z" fill="#665AF0"/>
</g>
</g>
<path id="Fill 8" fill-rule="evenodd" clip-rule="evenodd" d="M13.3943 10.1135H7.56449C7.11745 10.1135 6.75464 9.74551 6.75464 9.29205C6.75464 8.8386 7.11745 8.47058 7.56449 8.47058H13.3943C13.8414 8.47058 14.2042 8.8386 14.2042 9.29205C14.2042 9.74551 13.8414 10.1135 13.3943 10.1135" fill="#665AF0"/>
</g>
</g>
</svg>
