<svg width="24" height="24" viewBox="0 0 24 24" fill="none" xmlns="http://www.w3.org/2000/svg">
<g id="Icon Wallet">
<g id="Wallet">
<path id="Fill 1" fill-rule="evenodd" clip-rule="evenodd" d="M21.2733 15.1067H17.3506C15.5123 15.1067 14.0161 13.6581 14.0151 11.8781C14.0151 10.0962 15.5114 8.64669 17.3506 8.64575H21.2733C21.6745 8.64575 22.0001 8.9612 22.0001 9.34987C22.0001 9.73854 21.6745 10.054 21.2733 10.054H17.3506C16.3128 10.0549 15.4687 10.8726 15.4687 11.8772C15.4687 12.8808 16.3137 13.6985 17.3506 13.6985H21.2733C21.6745 13.6985 22.0001 14.014 22.0001 14.4026C22.0001 14.7913 21.6745 15.1067 21.2733 15.1067" fill="#232440"/>
<path id="Fill 3" fill-rule="evenodd" clip-rule="evenodd" d="M17.794 12.523H17.4917C17.0905 12.523 16.7649 12.2075 16.7649 11.8189C16.7649 11.4302 17.0905 11.1147 17.4917 11.1147H17.794C18.1952 11.1147 18.5208 11.4302 18.5208 11.8189C18.5208 12.2075 18.1952 12.523 17.794 12.523" fill="#232440"/>
<g id="Group 7">
<mask id="mask0_1342_3367" style="mask-type:luminance" maskUnits="userSpaceOnUse" x="2" y="3" width="20" height="18">
<path id="Clip 6" fill-rule="evenodd" clip-rule="evenodd" d="M2 3H21.9999V21H2V3Z" fill="white"/>
</mask>
<g mask="url(#mask0_1342_3367)">
<path id="Fill 5" fill-rule="evenodd" clip-rule="evenodd" d="M7.81193 4.40823C5.40867 4.40823 3.45312 6.30278 3.45312 8.63106V15.369C3.45312 17.6973 5.40867 19.5918 7.81193 19.5918H16.1884C18.5917 19.5918 20.5463 17.6973 20.5463 15.369V8.63106C20.5463 6.30278 18.5917 4.40823 16.1884 4.40823H7.81193ZM16.1884 21.0001H7.81189C4.60723 21.0001 1.99951 18.4737 1.99951 15.369V8.63107C1.99951 5.52544 4.60723 3 7.81189 3H16.1884C19.3931 3 21.9998 5.52544 21.9998 8.63107V15.369C21.9998 18.4737 19.3931 21.0001 16.1884 21.0001V21.0001Z" fill="#232440"/>
</g>
</g>
<path id="Fill 8" fill-rule="evenodd" clip-rule="evenodd" d="M12.354 8.66874H7.12205C6.72087 8.66874 6.39526 8.35329 6.39526 7.96462C6.39526 7.57594 6.72087 7.2605 7.12205 7.2605H12.354C12.7552 7.2605 13.0808 7.57594 13.0808 7.96462C13.0808 8.35329 12.7552 8.66874 12.354 8.66874" fill="#232440"/>
</g>
</g>
</svg>
