<svg width="24" height="24" viewBox="0 0 24 24" fill="none" xmlns="http://www.w3.org/2000/svg">
<g id="Keyhole">
<path id="Vector" d="M12.2412 2.25C10.2651 2.25 8.33343 2.83597 6.69039 3.93382C5.04735 5.03167 3.76675 6.59208 3.01054 8.41773C2.25433 10.2434 2.05647 12.2523 2.44198 14.1904C2.8275 16.1285 3.77906 17.9087 5.17636 19.306C6.57365 20.7033 8.35391 21.6549 10.292 22.0404C12.2301 22.4259 14.239 22.2281 16.0647 21.4719C17.8903 20.7157 19.4507 19.4351 20.5486 17.792C21.6464 16.149 22.2324 14.2173 22.2324 12.2412C22.2296 9.59223 21.1761 7.05255 19.303 5.17944C17.4299 3.30634 14.8902 2.2528 12.2412 2.25ZM12.2412 20.6953C10.5691 20.6953 8.93463 20.1995 7.54436 19.2705C6.15409 18.3416 5.07051 17.0212 4.43064 15.4764C3.79077 13.9317 3.62335 12.2318 3.94955 10.5919C4.27576 8.95195 5.08093 7.44558 6.26326 6.26325C7.44558 5.08093 8.95196 4.27575 10.5919 3.94955C12.2318 3.62335 13.9317 3.79077 15.4764 4.43064C17.0212 5.07051 18.3416 6.15409 19.2705 7.54436C20.1995 8.93463 20.6953 10.5691 20.6953 12.2412C20.6928 14.4826 19.8012 16.6314 18.2163 18.2163C16.6314 19.8012 14.4826 20.6927 12.2412 20.6953ZM12.2412 6.86132C11.4813 6.86148 10.7385 7.08695 10.1067 7.50921C9.47492 7.93147 8.9825 8.53157 8.69172 9.23364C8.40094 9.93571 8.32484 10.7082 8.47305 11.4536C8.62125 12.1989 8.98711 12.8835 9.52437 13.4209L8.48105 16.0417C8.41143 16.2165 8.38566 16.4057 8.40599 16.5928C8.42632 16.7799 8.49215 16.9592 8.59771 17.1149C8.70327 17.2707 8.84536 17.3983 9.01158 17.4865C9.1778 17.5747 9.36308 17.6209 9.55126 17.6211H14.9311C15.1193 17.6209 15.3046 17.5747 15.4708 17.4865C15.637 17.3983 15.7791 17.2707 15.8847 17.1149C15.9903 16.9592 16.0561 16.7799 16.0764 16.5928C16.0968 16.4057 16.071 16.2165 16.0014 16.0417L14.958 13.4209C15.4953 12.8835 15.8612 12.1989 16.0094 11.4536C16.1576 10.7082 16.0815 9.93571 15.7907 9.23364C15.4999 8.53157 15.0075 7.93147 14.3757 7.50921C13.7439 7.08695 13.0011 6.86148 12.2412 6.86132ZM13.3277 13.4805L14.3643 16.084H10.1181L11.1547 13.4805C11.218 13.3216 11.2264 13.1461 11.1788 12.9818C11.1311 12.8176 11.03 12.6739 10.8914 12.5736C10.4962 12.2882 10.2016 11.8849 10.05 11.4216C9.8983 10.9583 9.89739 10.4589 10.0473 9.99504C10.1973 9.5312 10.4904 9.12682 10.8846 8.84C11.2788 8.55317 11.7537 8.39866 12.2412 8.39866C12.7287 8.39866 13.2036 8.55317 13.5978 8.84C13.992 9.12682 14.2851 9.5312 14.4351 9.99504C14.585 10.4589 14.5841 10.9583 14.4324 11.4216C14.2808 11.8849 13.9862 12.2882 13.591 12.5736C13.4524 12.6739 13.3513 12.8176 13.3036 12.9818C13.256 13.1461 13.2644 13.3216 13.3277 13.4805Z" fill="#232440"/>
</g>
</svg>
