<svg width="24" height="24" viewBox="0 0 24 24" fill="none" xmlns="http://www.w3.org/2000/svg">
<g id="Notification">
<g id="Notification - Light 24px">
<g id="Notification_2">
<g id="Group 3">
<mask id="mask0_1217_1744" style="mask-type:luminance" maskUnits="userSpaceOnUse" x="3" y="2" width="18" height="17">
<path id="Clip 2" fill-rule="evenodd" clip-rule="evenodd" d="M3 2H21V18.1376H3V2Z" fill="white"/>
</mask>
<g mask="url(#mask0_1217_1744)">
<path id="Fill 1" fill-rule="evenodd" clip-rule="evenodd" d="M11.9986 3.39536C8.5975 3.39536 6.22695 5.94233 6.22695 8.22791C6.22695 10.1619 5.66545 11.0558 5.16915 11.8446C4.77114 12.4781 4.45682 12.9786 4.45682 14.066C4.61933 15.8205 5.83088 16.7423 11.9986 16.7423C18.1323 16.7423 19.3818 15.7795 19.5433 14.0056C19.5404 12.9786 19.2261 12.4781 18.8281 11.8446C18.3318 11.0558 17.7703 10.1619 17.7703 8.22791C17.7703 5.94233 15.3997 3.39536 11.9986 3.39536M11.9986 18.1376C7.44821 18.1376 3.33574 17.8307 3.00001 14.1256C2.99709 12.5925 3.48658 11.813 3.91865 11.1265C4.35559 10.4307 4.76723 9.77487 4.76723 8.2279C4.76723 5.22046 7.67301 2 11.9986 2C16.3242 2 19.23 5.22046 19.23 8.2279C19.23 9.77487 19.6416 10.4307 20.0785 11.1265C20.5106 11.813 21.0001 12.5925 21.0001 14.066C20.6605 17.8307 16.549 18.1376 11.9986 18.1376" fill="#232440"/>
</g>
</g>
<path id="Fill 4" fill-rule="evenodd" clip-rule="evenodd" d="M11.9512 22H11.9492C10.8583 21.9991 9.82585 21.5396 9.04248 20.7051C8.77292 20.4196 8.79725 19.9777 9.09698 19.721C9.3967 19.4624 9.85797 19.4856 10.1275 19.773C10.6316 20.3098 11.2787 20.6047 11.9502 20.6047H11.9512C12.6256 20.6047 13.2756 20.3098 13.7807 19.7721C14.0512 19.4865 14.5125 19.4633 14.8112 19.721C15.1109 19.9786 15.1353 20.4205 14.8657 20.7061C14.0794 21.5405 13.045 22 11.9512 22" fill="#232440"/>
</g>
</g>
</g>
</svg>
