<svg width="28" height="28" viewBox="0 0 28 28" fill="none" xmlns="http://www.w3.org/2000/svg">
<g id="Icon">
<g id="Scan">
<path id="Scan_2" fill-rule="evenodd" clip-rule="evenodd" d="M10.9331 4.83024C10.9331 4.37154 10.5611 4 10.103 4H10.1019L8.32477 4.00109C5.93459 4.00327 3.9895 5.94813 3.9895 8.33643V10.4022C3.9895 10.8598 4.3615 11.2325 4.81968 11.2325C5.27786 11.2325 5.65095 10.8598 5.65095 10.4022V8.33643C5.65095 6.86226 6.85095 5.66266 8.32586 5.66048L10.103 5.65939C10.5622 5.65939 10.9331 5.28786 10.9331 4.83024ZM19.6658 4.00034H17.928C17.4698 4.00034 17.0978 4.37187 17.0978 4.83058C17.0978 5.28819 17.4698 5.65864 17.928 5.65864H19.6658C21.1461 5.65864 22.3505 6.86151 22.3505 8.34004V10.4026C22.3505 10.8602 22.7225 11.2328 23.1807 11.2328C23.64 11.2328 24.0109 10.8602 24.0109 10.4026V8.34004C24.0109 5.94628 22.0625 4.00034 19.6658 4.00034ZM2.83127 14.0458H25.1698C25.628 14.0458 26 14.4173 26 14.8761C26 15.3337 25.628 15.7041 25.1698 15.7041H24.0113V19.6592C24.0113 22.054 22.0618 24 19.6662 24H17.9284C17.4691 24 17.0971 23.6285 17.0971 23.1698C17.0971 22.7121 17.4691 22.3406 17.9284 22.3406H19.6662C21.1465 22.3406 22.3509 21.1388 22.3509 19.6592V15.7041H19.4895V16.8057C19.5004 18.1839 18.3931 19.3105 17.0131 19.3236H10.9869C9.608 19.3105 8.50073 18.1839 8.51164 16.8057V15.7041H5.65018V19.6636C5.65018 21.1377 6.85127 22.3373 8.32727 22.3395L10.1033 22.3406C10.5615 22.3406 10.9335 22.7121 10.9335 23.1698C10.9324 23.6285 10.5615 24 10.1022 24L8.32509 23.9989C5.93491 23.9967 3.98873 22.0519 3.98873 19.6636V15.7041H2.83127C2.37309 15.7041 2 15.3337 2 14.8761C2 14.4173 2.37309 14.0458 2.83127 14.0458Z" fill="#665AF0"/>
<path id="Fill 5" d="M17.0015 8.09998H10.9754C9.59646 8.11414 8.4881 9.23965 8.5001 10.6179V12.0017C8.50337 12.1629 8.63319 12.2948 8.79464 12.3002H19.1801C19.3426 12.2959 19.4725 12.164 19.4779 12.0017V10.6179C19.479 9.95222 19.2215 9.31265 18.7568 8.83652C18.2954 8.36474 17.6615 8.09998 17.0015 8.09998" fill="#EFAE20"/>
</g>
</g>
</svg>
