<svg width="28" height="28" viewBox="0 0 28 28" fill="none" xmlns="http://www.w3.org/2000/svg">
<g id="Rectangle 54">
<g id="Group">
<path id="Vector" d="M10.6094 13.125H6.01563C4.62853 13.125 3.5 11.9965 3.5 10.6094V6.01563C3.5 4.62853 4.62853 3.5 6.01563 3.5H10.6094C11.9965 3.5 13.125 4.62853 13.125 6.01563V10.6094C13.125 11.9965 11.9965 13.125 10.6094 13.125ZM6.01563 5.25C5.59344 5.25 5.25 5.59344 5.25 6.01563V10.6094C5.25 11.0316 5.59344 11.375 6.01563 11.375H10.6094C11.0316 11.375 11.375 11.0316 11.375 10.6094V6.01563C11.375 5.59344 11.0316 5.25 10.6094 5.25H6.01563Z" fill="#665AF0"/>
<path id="Vector_2" d="M10.6094 24.5H6.01563C4.62853 24.5 3.5 23.3715 3.5 21.9844V17.3906C3.5 16.0035 4.62853 14.875 6.01563 14.875H10.6094C11.9965 14.875 13.125 16.0035 13.125 17.3906V21.9844C13.125 23.3715 11.9965 24.5 10.6094 24.5ZM6.01563 16.625C5.59344 16.625 5.25 16.9684 5.25 17.3906V21.9844C5.25 22.4066 5.59344 22.75 6.01563 22.75H10.6094C11.0316 22.75 11.375 22.4066 11.375 21.9844V17.3906C11.375 16.9684 11.0316 16.625 10.6094 16.625H6.01563Z" fill="#665AF0"/>
<path id="Vector_3" d="M21.9844 13.125H17.3906C16.0035 13.125 14.875 11.9965 14.875 10.6094V6.01563C14.875 4.62853 16.0035 3.5 17.3906 3.5H21.9844C23.3715 3.5 24.5 4.62853 24.5 6.01563V10.6094C24.5 11.9965 23.3715 13.125 21.9844 13.125ZM17.3906 5.25C16.9684 5.25 16.625 5.59344 16.625 6.01563V10.6094C16.625 11.0316 16.9684 11.375 17.3906 11.375H21.9844C22.4066 11.375 22.75 11.0316 22.75 10.6094V6.01563C22.75 5.59344 22.4066 5.25 21.9844 5.25H17.3906Z" fill="#665AF0"/>
<path id="Vector_4" d="M23.0781 19.25H21V16.2969C21 15.5129 20.3622 14.875 19.5781 14.875H16.2969C15.5128 14.875 14.875 15.5129 14.875 16.2969V19.5781C14.875 20.3621 15.5128 21 16.2969 21H19.25V23.0781C19.25 23.8621 19.8878 24.5 20.6719 24.5H23.0781C23.8622 24.5 24.5 23.8621 24.5 23.0781V20.6719C24.5 19.8879 23.8622 19.25 23.0781 19.25ZM16.625 16.625H19.25V19.25H16.625V16.625ZM22.75 22.75H21V21H22.75V22.75Z" fill="#FEBC11"/>
<path id="Vector_5" d="M8.75 9.625H7.875C7.39173 9.625 7 9.23322 7 8.75V7.875C7 7.39178 7.39173 7 7.875 7H8.75C9.23328 7 9.625 7.39178 9.625 7.875V8.75C9.625 9.23322 9.23328 9.625 8.75 9.625Z" fill="#665AF0"/>
<path id="Vector_6" d="M20.125 9.625H19.25C18.7667 9.625 18.375 9.23322 18.375 8.75V7.875C18.375 7.39178 18.7667 7 19.25 7H20.125C20.6083 7 21 7.39178 21 7.875V8.75C21 9.23322 20.6083 9.625 20.125 9.625Z" fill="#665AF0"/>
<path id="Vector_7" d="M8.75 21H7.875C7.39173 21 7 20.6082 7 20.125V19.25C7 18.7668 7.39173 18.375 7.875 18.375H8.75C9.23328 18.375 9.625 18.7668 9.625 19.25V20.125C9.625 20.6082 9.23328 21 8.75 21Z" fill="#665AF0"/>
</g>
</g>
</svg>
