<svg width="28" height="28" viewBox="0 0 28 28" fill="none" xmlns="http://www.w3.org/2000/svg">
<g id="Rectangle 205">
<g id="Group 158">
<path id="Vector (Stroke)" fill-rule="evenodd" clip-rule="evenodd" d="M11.1864 5.81818C8.52324 5.81818 6.36435 7.85325 6.36435 10.3636H4.43555C4.43555 6.8491 7.45799 4 11.1864 4H16.3555C20.0839 4 23.1064 6.8491 23.1064 10.3636H21.1776C21.1776 7.85325 19.0187 5.81818 16.3555 5.81818H11.1864ZM6.36435 17.6364C6.36435 20.1467 8.52324 22.1818 11.1864 22.1818H16.3555C19.0187 22.1818 21.1776 20.1467 21.1776 17.6364H23.1064C23.1064 21.1509 20.0839 24 16.3555 24H11.1864C7.45799 24 4.43555 21.1509 4.43555 17.6364H6.36435Z" fill="#665AF0"/>
<path id="Vector" d="M8.40584 12.6956H2.547C2.24487 12.6956 2 13.153 2 13.7174C2 14.2815 2.24487 14.7391 2.547 14.7391H8.40584C8.70797 14.7391 8.95284 14.2815 8.95284 13.7174C8.95284 13.153 8.70797 12.6956 8.40584 12.6956Z" fill="#FEBC11"/>
<path id="Vector_2" d="M25.453 12.6956H19.5941C19.292 12.6956 19.0471 13.153 19.0471 13.7174C19.0471 14.2815 19.292 14.7391 19.5941 14.7391H25.453C25.7551 14.7391 26 14.2815 26 13.7174C26 13.153 25.7551 12.6956 25.453 12.6956Z" fill="#FEBC11"/>
</g>
</g>
</svg>
