<svg width="28" height="28" viewBox="0 0 28 28" fill="none" xmlns="http://www.w3.org/2000/svg">
<g id="Rectangle 203">
<g id="Group">
<path id="Vector" d="M26 22.4844C26 22.0961 25.6852 21.7812 25.2969 21.7812H20.3901C20.4944 19.2426 21.1369 16.6676 21.7603 14.1703C22.462 11.3597 23.1875 8.45337 23.1875 5.51562C23.1875 3.57711 21.6104 2 19.6719 2H5.51562C3.57711 2 2 3.57711 2 5.51562C2 5.90394 2.31481 6.21875 2.70312 6.21875H7.61033C7.50594 8.75727 6.86314 11.3325 6.2397 13.8297C5.53803 16.6403 4.8125 19.5466 4.8125 22.4844C4.8125 24.4229 6.38961 26 8.32812 26H22.4844C24.4229 26 26 24.4229 26 22.4844ZM3.52672 4.8125C3.81692 3.99402 4.59894 3.40625 5.51562 3.40625C6.43231 3.40625 7.21433 3.99402 7.50453 4.8125H3.52672ZM6.21875 22.4844C6.21875 19.7195 6.923 16.8985 7.60405 14.1703C8.30572 11.3597 9.03125 8.45337 9.03125 5.51562C9.03125 4.7248 8.76861 3.99425 8.3262 3.40625H19.6719C20.835 3.40625 21.7812 4.35252 21.7812 5.51562C21.7812 8.2805 21.077 11.1015 20.396 13.8297C19.7503 16.4159 19.085 19.0831 18.9827 21.7812H11.1406C10.7523 21.7812 10.4375 22.0961 10.4375 22.4844C10.4375 23.6475 9.49123 24.5938 8.32812 24.5938C7.16502 24.5938 6.21875 23.6475 6.21875 22.4844ZM22.4844 24.5938H11.138C11.4459 24.1847 11.6672 23.7069 11.7731 23.1875H24.4728C24.1826 24.0059 23.401 24.5938 22.4844 24.5938Z" fill="#665AF0"/>
<path id="Vector_2" d="M11.1406 9.03125H19.4373C19.8256 9.03125 20.1404 8.71644 20.1404 8.32812C20.1404 7.93981 19.8256 7.625 19.4373 7.625H11.1406C10.7523 7.625 10.4375 7.93981 10.4375 8.32812C10.4375 8.71644 10.7523 9.03125 11.1406 9.03125Z" fill="#FEBC11"/>
<path id="Vector_3" d="M10.4807 11.8438H18.8739C19.2622 11.8438 19.5771 11.5289 19.5771 11.1406C19.5771 10.7523 19.2622 10.4375 18.8739 10.4375H10.4807C10.0924 10.4375 9.77759 10.7523 9.77759 11.1406C9.77759 11.5289 10.0924 11.8438 10.4807 11.8438Z" fill="#FEBC11"/>
<path id="Vector_4" d="M9.82166 14.6562H18.1782C18.5665 14.6562 18.8813 14.3414 18.8813 13.9531C18.8813 13.5648 18.5665 13.25 18.1782 13.25H9.82166C9.43334 13.25 9.11853 13.5648 9.11853 13.9531C9.11853 14.3414 9.43334 14.6562 9.82166 14.6562Z" fill="#FEBC11"/>
<path id="Vector_5" d="M9.1261 17.4688H17.5193C17.9076 17.4688 18.2225 17.1539 18.2225 16.7656C18.2225 16.3773 17.9076 16.0625 17.5193 16.0625H9.1261C8.73779 16.0625 8.42297 16.3773 8.42297 16.7656C8.42297 17.1539 8.73779 17.4688 9.1261 17.4688Z" fill="#FEBC11"/>
</g>
</g>
</svg>
