<svg width="24" height="24" viewBox="0 0 24 24" fill="none" xmlns="http://www.w3.org/2000/svg">
<g id="Rectangle 229">
<g id="bank 1" clip-path="url(#clip0_1342_3374)">
<g id="Group">
<g id="Group_2">
<path id="Vector" d="M20.7915 9.45736C21.4379 9.45736 21.9637 8.93151 21.9637 8.28515V6.76738C21.9637 6.28611 21.6755 5.85954 21.2291 5.67992L12.4395 2.08592C12.1532 1.97062 11.8435 1.97265 11.5646 2.08428C11.5581 2.0869 11.7117 2.02411 2.77072 5.67996C2.32438 5.85954 2.03613 6.28614 2.03613 6.76741V8.28523C2.03613 8.93159 2.56199 9.45744 3.20834 9.45744H3.91167V18.2881H3.20834C2.56199 18.2881 2.03613 18.8139 2.03613 19.4603V20.8279C2.03613 21.4742 2.56199 22.0001 3.20834 22.0001H20.7915C21.4378 22.0001 21.9637 21.4742 21.9637 20.8279V19.4603C21.9637 18.8139 21.4378 18.2881 20.7915 18.2881H20.0882V9.45744H20.7915V9.45736ZM20.7915 19.4602C20.7923 20.8591 20.7954 20.8278 20.7915 20.8278H3.20838V19.4602H20.7915ZM5.08392 18.288V9.45736H6.41242V18.288H5.08392ZM7.58463 18.288V9.45736H10.1635V18.288H7.58463ZM11.3357 18.288V9.45736H12.6642V18.288H11.3357ZM13.8364 18.288V9.45736H16.4153V18.288H13.8364ZM17.5875 18.288V9.45736H18.916V18.288H17.5875ZM3.20838 8.28515C3.20838 6.65019 3.20662 6.76808 3.21248 6.7657L12 3.1726L20.7874 6.7657C20.7935 6.76812 20.7915 6.65406 20.7915 8.28515C20.5967 8.28515 3.43989 8.28515 3.20838 8.28515Z" fill="#232440"/>
</g>
<g id="Group_3">
<path id="Vector_2" d="M12.0002 4.53418C11.6765 4.53418 11.4141 4.7966 11.4141 5.12029V6.37065C11.4141 6.69434 11.6765 6.95676 12.0002 6.95676C12.3239 6.95676 12.5863 6.69434 12.5863 6.37065V5.12029C12.5863 4.7966 12.3239 4.53418 12.0002 4.53418V4.53418Z" fill="#232440"/>
</g>
</g>
</g>
</g>
<defs>
<clipPath id="clip0_1342_3374">
<rect width="20" height="20" fill="white" transform="translate(2 2)"/>
</clipPath>
</defs>
</svg>
