<svg width="24" height="24" viewBox="0 0 24 24" fill="none" xmlns="http://www.w3.org/2000/svg">
<g id="Setting - Light 24ox">
<g id="Setting">
<g id="Group 3">
<mask id="mask0_1342_3372" style="mask-type:luminance" maskUnits="userSpaceOnUse" x="2" y="2" width="20" height="21">
<path id="Clip 2" fill-rule="evenodd" clip-rule="evenodd" d="M2.5 2.00049H21.5V22.0005H2.5V2.00049Z" fill="white"/>
</mask>
<g mask="url(#mask0_1342_3372)">
<path id="Fill 1" fill-rule="evenodd" clip-rule="evenodd" d="M7.62546 16.9032C7.85107 16.9032 8.07669 16.9312 8.29738 16.9891C8.9634 17.1648 9.54173 17.6011 9.88459 18.187C10.1072 18.5547 10.2304 18.9842 10.2343 19.4224C10.2343 20.0498 10.7486 20.5527 11.3812 20.5527H12.6156C13.2452 20.5527 13.7595 20.0527 13.7625 19.4359C13.7585 18.7545 14.0304 18.1069 14.528 17.6194C15.0186 17.1388 15.7043 16.8502 16.3901 16.8695C16.8393 16.8801 17.2718 16.9988 17.6531 17.2111C18.2019 17.519 18.9024 17.3357 19.2196 16.8048L19.8738 15.7363C20.0196 15.4902 20.062 15.1813 19.9842 14.8966C19.9073 14.6118 19.7142 14.3648 19.4541 14.219C18.8452 13.8754 18.4108 13.3214 18.2305 12.6573C18.0521 12.0058 18.1497 11.2944 18.4975 10.7086C18.7241 10.3225 19.0561 9.99721 19.4541 9.77328C19.9881 9.46731 20.1753 8.78298 19.865 8.25019C19.8522 8.22895 19.8403 8.20675 19.8305 8.18359L19.2531 7.20294C18.9388 6.66725 18.2393 6.4829 17.6906 6.78887C17.0975 7.13248 16.392 7.23093 15.7142 7.05623C15.0373 6.88442 14.4698 6.46456 14.1161 5.87192C13.8895 5.50128 13.7664 5.06984 13.7625 4.63067C13.7713 4.30057 13.6531 4.00425 13.4383 3.78708C13.2245 3.57088 12.924 3.44829 12.6156 3.44829H11.3812C11.0757 3.44829 10.79 3.56508 10.5742 3.7755C10.3595 3.98688 10.2422 4.26775 10.2442 4.56697C10.2235 5.9781 9.04616 7.11414 7.62053 7.11414C7.16338 7.10931 6.72299 6.98866 6.34072 6.76474C5.80377 6.46552 5.10228 6.64988 4.788 7.18557L4.121 8.25984C3.81557 8.77912 4.00277 9.46538 4.54661 9.77521C5.35352 10.2327 5.85697 11.086 5.85697 12.001C5.85697 12.916 5.35352 13.7683 4.54464 14.2267C4.00375 14.5337 3.81656 15.2161 4.12986 15.7469L4.75154 16.7971C4.90524 17.0683 5.15647 17.2642 5.44711 17.3443C5.73677 17.4235 6.05599 17.3897 6.322 17.2449C6.71313 17.02 7.16831 16.9032 7.62546 16.9032M12.6157 22.0005H11.3812C9.93387 22.0005 8.75652 20.848 8.75652 19.4301C8.75455 19.2554 8.70332 19.074 8.60775 18.9167C8.45307 18.6522 8.20282 18.463 7.91415 18.3877C7.62745 18.3124 7.31316 18.3539 7.05503 18.5007C6.43631 18.8385 5.70822 18.9205 5.04221 18.7371C4.37718 18.5528 3.80279 18.1049 3.46584 17.5113L2.85007 16.4718C2.12987 15.2479 2.55844 13.6795 3.80574 12.9729C4.15944 12.7731 4.37915 12.4006 4.37915 12.001C4.37915 11.6014 4.15944 11.2278 3.80574 11.028C2.55746 10.3177 2.12987 8.74534 2.84909 7.52146L3.51707 6.44718C4.22742 5.23682 5.83335 4.8102 7.08557 5.5148C7.25602 5.61421 7.44124 5.6644 7.62942 5.66633C8.24322 5.66633 8.75652 5.17022 8.76637 4.56021C8.76243 3.88746 9.03337 3.24174 9.52697 2.75431C10.0225 2.26785 10.6807 2.00049 11.3812 2.00049H12.6157C13.3211 2.00049 14.0068 2.28426 14.4984 2.77748C14.9891 3.27359 15.26 3.95406 15.2393 4.64418C15.2413 4.79958 15.2935 4.97911 15.3881 5.13644C15.5448 5.39704 15.792 5.58043 16.0856 5.65572C16.3792 5.72714 16.6866 5.68853 16.9477 5.537C18.2088 4.83143 19.8137 5.25419 20.534 6.48L21.1477 7.52146C21.1635 7.54945 21.1773 7.57647 21.1891 7.60447C21.8414 8.81194 21.4059 10.3321 20.194 11.0261C20.0177 11.1255 19.8748 11.2645 19.7763 11.4325C19.6236 11.6921 19.5812 12.001 19.6581 12.2847C19.7369 12.5743 19.9251 12.8146 20.1901 12.9633C20.7881 13.3001 21.2344 13.8677 21.4128 14.523C21.5911 15.1775 21.4936 15.8878 21.1458 16.4737L20.4916 17.5412C19.7714 18.7535 18.1664 19.1734 16.9182 18.4669C16.7517 18.3732 16.5595 18.3221 16.3684 18.3173H16.3625C16.0778 18.3173 15.7851 18.436 15.5723 18.6435C15.3566 18.8549 15.2383 19.1367 15.2403 19.4359C15.2334 20.8538 14.0561 22.0005 12.6157 22.0005" fill="#232440"/>
</g>
</g>
<path id="Fill 4" fill-rule="evenodd" clip-rule="evenodd" d="M12.0027 10.1797C10.9781 10.1797 10.1446 10.9973 10.1446 12.0011C10.1446 13.0049 10.9781 13.8205 12.0027 13.8205C13.0274 13.8205 13.8609 13.0049 13.8609 12.0011C13.8609 10.9973 13.0274 10.1797 12.0027 10.1797M12.0027 15.2683C10.1633 15.2683 8.66675 13.8031 8.66675 12.0011C8.66675 10.199 10.1633 8.73193 12.0027 8.73193C13.8422 8.73193 15.3387 10.199 15.3387 12.0011C15.3387 13.8031 13.8422 15.2683 12.0027 15.2683" fill="#232440"/>
</g>
</g>
</svg>
