<svg width="24" height="24" viewBox="0 0 24 24" fill="none" xmlns="http://www.w3.org/2000/svg">
<g id="ShareNetwork">
<path id="Vector" d="M17.1602 15.6002C16.6198 15.6001 16.085 15.7083 15.5872 15.9186C15.0895 16.1289 14.639 16.4369 14.2624 16.8244L9.59481 13.8243C9.96196 12.8828 9.96196 11.8377 9.59481 10.8962L14.2624 7.89618C14.9635 8.61436 15.9063 9.04663 16.908 9.10918C17.9097 9.17172 18.899 8.86009 19.684 8.23471C20.469 7.60932 20.9938 6.71472 21.1567 5.72437C21.3196 4.73402 21.1089 3.71846 20.5656 2.87459C20.0223 2.03072 19.1849 1.41865 18.216 1.15707C17.247 0.895483 16.2154 1.00301 15.3212 1.4588C14.427 1.91459 13.7339 2.68617 13.3763 3.62395C13.0186 4.56173 13.022 5.5989 13.3856 6.53438L8.71799 9.5344C8.15592 8.95735 7.43454 8.56103 6.64606 8.39609C5.85758 8.23116 5.03783 8.3051 4.29159 8.60847C3.54535 8.91184 2.90654 9.43085 2.4568 10.0992C2.00707 10.7675 1.76685 11.5547 1.76685 12.3603C1.76685 13.1658 2.00707 13.9531 2.4568 14.6214C2.90654 15.2897 3.54535 15.8087 4.29159 16.1121C5.03783 16.4154 5.85758 16.4894 6.64606 16.3244C7.43454 16.1595 8.15592 15.7632 8.71799 15.1861L13.3856 18.1862C13.0729 18.9926 13.0266 19.878 13.2535 20.7127C13.4805 21.5474 13.9687 22.2875 14.6466 22.8247C15.3246 23.3618 16.1568 23.6678 17.0212 23.6978C17.8857 23.7278 18.737 23.4802 19.4506 22.9913C20.1642 22.5025 20.7025 21.798 20.9867 20.981C21.271 20.1641 21.2862 19.2776 21.0302 18.4514C20.7741 17.6252 20.2603 16.9027 19.5639 16.3896C18.8675 15.8765 18.0251 15.5999 17.1602 15.6002ZM17.1602 2.64032C17.6408 2.64032 18.1106 2.78284 18.5102 3.04985C18.9098 3.31686 19.2213 3.69637 19.4052 4.14039C19.5891 4.58442 19.6372 5.07301 19.5435 5.54438C19.4497 6.01575 19.2183 6.44873 18.8784 6.78857C18.5386 7.12841 18.1056 7.35984 17.6342 7.4536C17.1629 7.54737 16.6743 7.49924 16.2302 7.31532C15.7862 7.1314 15.4067 6.81995 15.1397 6.42034C14.8727 6.02073 14.7302 5.55092 14.7302 5.07031C14.7302 4.42584 14.9862 3.80776 15.4419 3.35205C15.8976 2.89634 16.5157 2.64032 17.1602 2.64032ZM5.82023 14.7903C5.33962 14.7903 4.86981 14.6477 4.4702 14.3807C4.07059 14.1137 3.75914 13.7342 3.57522 13.2902C3.3913 12.8462 3.34317 12.3576 3.43694 11.8862C3.5307 11.4148 3.76213 10.9818 4.10197 10.642C4.44181 10.3022 4.87479 10.0707 5.34616 9.97697C5.81753 9.88321 6.30612 9.93133 6.75014 10.1153C7.19417 10.2992 7.57368 10.6106 7.84069 11.0102C8.1077 11.4098 8.25021 11.8797 8.25021 12.3603C8.25021 13.0047 7.9942 13.6228 7.53849 14.0785C7.08278 14.5342 6.4647 14.7903 5.82023 14.7903ZM17.1602 22.0802C16.6796 22.0802 16.2097 21.9377 15.8101 21.6707C15.4105 21.4037 15.0991 21.0242 14.9151 20.5801C14.7312 20.1361 14.6831 19.6475 14.7769 19.1762C14.8706 18.7048 15.1021 18.2718 15.4419 17.932C15.7817 17.5921 16.2147 17.3607 16.6861 17.2669C17.1575 17.1732 17.6461 17.2213 18.0901 17.4052C18.5341 17.5891 18.9136 17.9006 19.1806 18.3002C19.4476 18.6998 19.5901 19.1696 19.5901 19.6502C19.5901 20.2947 19.3341 20.9128 18.8784 21.3685C18.4227 21.8242 17.8046 22.0802 17.1602 22.0802Z" fill="#232440"/>
</g>
</svg>
