<svg width="24" height="24" viewBox="0 0 24 24" fill="none" xmlns="http://www.w3.org/2000/svg">
<g id="Star - Light 24px">
<path id="Star" fill-rule="evenodd" clip-rule="evenodd" d="M12.0001 4.5405C11.9068 4.5405 11.677 4.56618 11.555 4.8106L9.68213 8.56019C9.38572 9.15277 8.81442 9.5646 8.1539 9.65908L3.961 10.264C3.68407 10.304 3.58971 10.5094 3.56099 10.5957C3.53535 10.6789 3.49433 10.8905 3.6851 11.0733L6.71695 13.9899C7.20003 14.4552 7.41953 15.1258 7.30465 15.7821L6.59079 19.9003C6.54669 20.1581 6.70772 20.3081 6.77951 20.3594C6.85541 20.4169 7.05849 20.5309 7.30978 20.3995L11.0586 18.4533C11.6493 18.1483 12.3529 18.1483 12.9417 18.4533L16.6894 20.3984C16.9418 20.5289 17.1448 20.4149 17.2218 20.3594C17.2936 20.3081 17.4546 20.1581 17.4105 19.9003L16.6946 15.7821C16.5797 15.1258 16.7992 14.4552 17.2823 13.9899L20.3141 11.0733C20.5059 10.8905 20.4649 10.6779 20.4382 10.5957C20.4105 10.5094 20.3162 10.304 20.0392 10.264L15.8463 9.65908C15.1868 9.5646 14.6156 9.15277 14.3191 8.55916L12.4442 4.8106C12.3232 4.56618 12.0935 4.5405 12.0001 4.5405M7.07385 21.9995C6.65026 21.9995 6.22973 21.866 5.86973 21.6031C5.24818 21.1471 4.94356 20.3943 5.07587 19.6364L5.78973 15.5181C5.81639 15.3651 5.76409 15.21 5.65126 15.1012L2.61941 12.1845C2.06145 11.6494 1.86145 10.8586 2.09735 10.1243C2.3353 9.38179 2.96506 8.85083 3.74148 8.73991L7.93438 8.13501C8.09644 8.11242 8.23593 8.0128 8.30567 7.87107L10.1796 4.12046C10.5252 3.42929 11.2226 3 12.0001 3V3C12.7775 3 13.475 3.42929 13.8206 4.12046L15.6955 7.87004C15.7663 8.0128 15.9048 8.11242 16.0658 8.13501L20.2587 8.73991C21.0351 8.85083 21.6649 9.38179 21.9028 10.1243C22.1387 10.8586 21.9377 11.6494 21.3798 12.1845L18.3479 15.1012C18.2351 15.21 18.1838 15.3651 18.2105 15.5171L18.9254 19.6364C19.0566 20.3954 18.752 21.1482 18.1294 21.6031C17.4987 22.0663 16.6771 22.1289 15.9807 21.7654L12.2339 19.8213C12.0873 19.7453 11.9119 19.7453 11.7652 19.8213L8.01849 21.7664C7.71899 21.9225 7.39591 21.9995 7.07385 21.9995" fill="#232440"/>
</g>
</svg>
