<svg width="24" height="24" viewBox="0 0 24 24" fill="none" xmlns="http://www.w3.org/2000/svg">
<g id="Ticket - Light 24px">
<g id="Group 10">
<path id="Fill 1" fill-rule="evenodd" clip-rule="evenodd" d="M12.7206 7.81349C12.3355 7.81349 12.0229 7.50629 12.0229 7.12777V4.91424C12.0229 4.53572 12.3355 4.22852 12.7206 4.22852C13.1057 4.22852 13.4183 4.53572 13.4183 4.91424V7.12777C13.4183 7.50629 13.1057 7.81349 12.7206 7.81349" fill="#232440"/>
<path id="Fill 3" fill-rule="evenodd" clip-rule="evenodd" d="M12.7206 19.8029C12.3355 19.8029 12.0229 19.4957 12.0229 19.1171V17.2675C12.0229 16.8881 12.3355 16.5818 12.7206 16.5818C13.1057 16.5818 13.4183 16.8881 13.4183 17.2675V19.1171C13.4183 19.4957 13.1057 19.8029 12.7206 19.8029" fill="#232440"/>
<path id="Fill 5" fill-rule="evenodd" clip-rule="evenodd" d="M12.7206 14.8118C12.3355 14.8118 12.0229 14.5046 12.0229 14.126V9.7182C12.0229 9.33968 12.3355 9.03247 12.7206 9.03247C13.1057 9.03247 13.4183 9.33968 13.4183 9.7182V14.126C13.4183 14.5046 13.1057 14.8118 12.7206 14.8118" fill="#232440"/>
<g id="Group 9">
<mask id="mask0_1342_3365" style="mask-type:luminance" maskUnits="userSpaceOnUse" x="2" y="4" width="20" height="16">
<path id="Clip 8" fill-rule="evenodd" clip-rule="evenodd" d="M2 4H22V20H2V4Z" fill="white"/>
</mask>
<g mask="url(#mask0_1342_3365)">
<path id="Fill 7" fill-rule="evenodd" clip-rule="evenodd" d="M3.39532 14.5636V16.3365C3.39532 17.6 4.45858 18.6286 5.76556 18.6286H18.2344C19.5414 18.6286 20.6046 17.6 20.6046 16.3365V14.5636C19.4409 14.2628 18.5795 13.2278 18.5795 12.0008C18.5795 10.7729 19.44 9.73885 20.6046 9.43805L20.6037 7.66339C20.6037 6.39982 19.5404 5.37123 18.2335 5.37123H5.76649C4.45951 5.37123 3.39625 6.39982 3.39625 7.66339L3.39532 9.50845C4.57393 9.79279 5.42044 10.7857 5.42044 12.0008C5.42044 13.2278 4.55905 14.2628 3.39532 14.5636M18.2344 20H5.76558C3.6893 20 2 18.3561 2 16.3364V13.9666C2 13.588 2.31256 13.2808 2.69767 13.2808C3.42977 13.2808 4.02512 12.7066 4.02512 12.0008C4.02512 11.3151 3.45395 10.7976 2.69767 10.7976C2.51256 10.7976 2.33488 10.7254 2.20465 10.5964C2.07349 10.4684 2 10.2929 2 10.1119L2.00093 7.66336C2.00093 5.64367 3.69023 3.99976 5.76651 3.99976H18.2335C20.3098 3.99976 21.9991 5.64367 21.9991 7.66336L22 10.0351C22 10.2161 21.9265 10.3916 21.7954 10.5196C21.6651 10.6486 21.4874 10.7208 21.3023 10.7208C20.5702 10.7208 19.9749 11.295 19.9749 12.0008C19.9749 12.7066 20.5702 13.2808 21.3023 13.2808C21.6874 13.2808 22 13.588 22 13.9666V16.3364C22 18.3561 20.3107 20 18.2344 20" fill="#232440"/>
</g>
</g>
</g>
</g>
</svg>
