<svg width="24" height="24" viewBox="0 0 24 24" fill="none" xmlns="http://www.w3.org/2000/svg">
<g id="Unlock - Light 24px">
<g id="Unlock">
<path id="Fill 1" fill-rule="evenodd" clip-rule="evenodd" d="M7.36507 10.1982C6.94429 10.1982 6.60278 9.86224 6.60278 9.44824V7.30124C6.616 4.36324 9.03092 2.00024 11.9916 2.00024H12.012C14.3049 2.00024 16.3519 3.43324 17.103 5.56724C17.2413 5.95824 17.0298 6.38524 16.6314 6.52124C16.234 6.65824 15.8 6.44924 15.6618 6.05724C15.1241 4.52824 13.6555 3.50024 12.0089 3.50024H11.9947C9.86842 3.50024 8.1365 5.19424 8.12736 7.28424V9.44824C8.12736 9.86224 7.78585 10.1982 7.36507 10.1982" fill="#232440"/>
<path id="Fill 3" fill-rule="evenodd" clip-rule="evenodd" d="M8.11641 10.127C6.41092 10.127 5.02457 11.492 5.02457 13.17V17.458C5.02457 19.136 6.41092 20.501 8.11641 20.501H15.8836C17.5881 20.501 18.9754 19.136 18.9754 17.458V13.17C18.9754 11.492 17.5881 10.127 15.8836 10.127H8.11641ZM15.8836 22.001H8.11641C5.57037 22.001 3.5 19.963 3.5 17.458V13.17C3.5 10.665 5.57037 8.62695 8.11641 8.62695H15.8836C18.4286 8.62695 20.5 10.665 20.5 13.17V17.458C20.5 19.963 18.4286 22.001 15.8836 22.001V22.001Z" fill="#232440"/>
<path id="Fill 5" fill-rule="evenodd" clip-rule="evenodd" d="M12.0003 17.1746C11.5795 17.1746 11.238 16.8386 11.238 16.4246V14.2026C11.238 13.7886 11.5795 13.4526 12.0003 13.4526C12.4211 13.4526 12.7626 13.7886 12.7626 14.2026V16.4246C12.7626 16.8386 12.4211 17.1746 12.0003 17.1746" fill="#232440"/>
</g>
</g>
</svg>
