<svg width="24" height="24" viewBox="0 0 24 24" fill="none" xmlns="http://www.w3.org/2000/svg">
<g id="UserCircleGear">
<path id="Vector" d="M21.3876 6.01184L20.94 5.75347C20.9925 5.47546 20.9925 5.19008 20.94 4.91208L21.3876 4.65371C21.5641 4.55181 21.693 4.38396 21.7458 4.18708C21.7985 3.9902 21.7709 3.78042 21.669 3.60389C21.5671 3.42735 21.3993 3.29853 21.2024 3.24575C21.0055 3.19297 20.7958 3.22057 20.6192 3.32246L20.1707 3.5818C19.956 3.39763 19.7092 3.25468 19.4426 3.16014V2.64339C19.4426 2.4396 19.3617 2.24416 19.2176 2.10006C19.0735 1.95596 18.878 1.875 18.6742 1.875C18.4704 1.875 18.275 1.95596 18.1309 2.10006C17.9868 2.24416 17.9058 2.4396 17.9058 2.64339V3.16014C17.6393 3.25468 17.3924 3.39763 17.1778 3.5818L16.7292 3.32246C16.6418 3.27201 16.5453 3.23927 16.4453 3.2261C16.3452 3.21294 16.2435 3.21962 16.146 3.24575C16.0485 3.27188 15.9572 3.31696 15.8771 3.37841C15.797 3.43986 15.7299 3.51648 15.6794 3.60389C15.629 3.6913 15.5962 3.78779 15.583 3.88785C15.5699 3.98792 15.5766 4.0896 15.6027 4.18708C15.6288 4.28457 15.6739 4.37595 15.7354 4.45601C15.7968 4.53608 15.8734 4.60325 15.9608 4.65371L16.4084 4.91208C16.3559 5.19008 16.3559 5.47546 16.4084 5.75347L15.9608 6.01184C15.8143 6.09638 15.6997 6.22693 15.6349 6.38324C15.5701 6.53955 15.5587 6.71287 15.6025 6.87632C15.6463 7.03976 15.7428 7.18417 15.8771 7.28715C16.0113 7.39014 16.1758 7.44592 16.345 7.44586C16.4799 7.44627 16.6125 7.4108 16.7292 7.34308L17.1778 7.08375C17.3924 7.26792 17.6393 7.41087 17.9058 7.50541V8.02215C17.9058 8.22594 17.9868 8.42139 18.1309 8.56549C18.275 8.70959 18.4704 8.79055 18.6742 8.79055C18.878 8.79055 19.0735 8.70959 19.2176 8.56549C19.3617 8.42139 19.4426 8.22594 19.4426 8.02215V7.50541C19.7092 7.41087 19.956 7.26792 20.1707 7.08375L20.6192 7.34308C20.7359 7.4108 20.8685 7.44627 21.0034 7.44586C21.1726 7.44592 21.3371 7.39014 21.4714 7.28715C21.6056 7.18417 21.7021 7.03976 21.7459 6.87632C21.7897 6.71287 21.7783 6.53955 21.7136 6.38324C21.6488 6.22693 21.5342 6.09638 21.3876 6.01184ZM17.9058 5.33277C17.9058 5.1808 17.9509 5.03224 18.0353 4.90588C18.1198 4.77951 18.2398 4.68103 18.3802 4.62287C18.5206 4.56471 18.6751 4.54949 18.8241 4.57914C18.9732 4.60879 19.1101 4.68197 19.2176 4.78944C19.325 4.8969 19.3982 5.03381 19.4279 5.18287C19.4575 5.33192 19.4423 5.48642 19.3841 5.62682C19.326 5.76723 19.2275 5.88724 19.1011 5.97167C18.9748 6.0561 18.8262 6.10117 18.6742 6.10117C18.4704 6.10117 18.275 6.02021 18.1309 5.87611C17.9868 5.73201 17.9058 5.53656 17.9058 5.33277ZM20.7249 9.9537C20.5239 9.98734 20.3445 10.0994 20.2262 10.2653C20.1078 10.4312 20.0602 10.6373 20.0938 10.8383C20.1719 11.3043 20.211 11.7759 20.211 12.2483C20.2128 14.3174 19.4524 16.3147 18.0749 17.8586C17.2179 16.6167 16.0129 15.656 14.6113 15.0971C15.3642 14.5042 15.9135 13.6913 16.183 12.7717C16.4525 11.852 16.4287 10.8713 16.1149 9.96575C15.8011 9.06025 15.213 8.27504 14.4322 7.7193C13.6515 7.16356 12.717 6.86493 11.7587 6.86493C10.8004 6.86493 9.86584 7.16356 9.08511 7.7193C8.30438 8.27504 7.71622 9.06025 7.40245 9.96575C7.08867 10.8713 7.06486 11.852 7.33433 12.7717C7.60381 13.6913 8.15317 14.5042 8.90601 15.0971C7.50448 15.656 6.29946 16.6167 5.44248 17.8586C4.36165 16.6406 3.65565 15.1364 3.40935 13.5268C3.16305 11.9171 3.38695 10.2706 4.05412 8.78523C4.72129 7.29982 5.80333 6.03875 7.17014 5.15365C8.53694 4.26854 10.1303 3.79709 11.7587 3.79599C12.2311 3.79591 12.7027 3.8351 13.1687 3.91317C13.3688 3.94474 13.5732 3.89602 13.7376 3.77763C13.9019 3.65923 14.0129 3.48073 14.0463 3.28095C14.0797 3.08117 14.0329 2.87627 13.916 2.71083C13.7992 2.54539 13.6217 2.43278 13.4223 2.39751C11.3355 2.04646 9.19122 2.36767 7.29895 3.31475C5.40668 4.26184 3.86435 5.78579 2.89466 7.66657C1.92497 9.54736 1.57808 11.6877 1.9041 13.7784C2.23011 15.8692 3.21215 17.8023 4.70842 19.2986C6.20469 20.7949 8.13777 21.7769 10.2286 22.1029C12.3193 22.4289 14.4596 22.082 16.3404 21.1123C18.2212 20.1426 19.7452 18.6003 20.6922 16.708C21.6393 14.8158 21.9605 12.6715 21.6095 10.5847C21.5759 10.3838 21.4638 10.2044 21.2979 10.086C21.132 9.96768 20.9259 9.92009 20.7249 9.9537ZM8.6851 11.4799C8.6851 10.872 8.86536 10.2778 9.20309 9.77234C9.54082 9.26689 10.0208 8.87294 10.5825 8.64031C11.1441 8.40768 11.7621 8.34681 12.3583 8.46541C12.9545 8.584 13.5022 8.87673 13.932 9.30658C14.3619 9.73643 14.6546 10.2841 14.7732 10.8803C14.8918 11.4765 14.8309 12.0945 14.5983 12.6561C14.3657 13.2178 13.9717 13.6978 13.4663 14.0355C12.9608 14.3732 12.3666 14.5535 11.7587 14.5535C10.9435 14.5535 10.1617 14.2297 9.58533 13.6533C9.00892 13.0769 8.6851 12.2951 8.6851 11.4799ZM6.5797 18.9237C7.13557 18.0544 7.90134 17.3389 8.80643 16.8434C9.71152 16.3478 10.7268 16.088 11.7587 16.088C12.7906 16.088 13.8058 16.3478 14.7109 16.8434C15.616 17.3389 16.3818 18.0544 16.9377 18.9237C15.4569 20.0754 13.6345 20.7006 11.7587 20.7006C9.88281 20.7006 8.06046 20.0754 6.5797 18.9237Z" fill="#232440"/>
</g>
</svg>
