<svg width="24" height="24" viewBox="0 0 24 24" fill="none" xmlns="http://www.w3.org/2000/svg">
<g id="UserGear">
<path id="Vector" d="M13.186 14.7823C14.2839 14.05 15.1293 12.9548 15.5941 11.6622C16.059 10.3697 16.1181 8.95021 15.7625 7.61851C15.4069 6.28681 14.6559 5.11537 13.6231 4.28141C12.5904 3.44744 11.3321 2.99634 10.0386 2.99634C8.74513 2.99634 7.48683 3.44744 6.45409 4.28141C5.42135 5.11537 4.67036 6.28681 4.31474 7.61851C3.95911 8.95021 4.01821 10.3697 4.48308 11.6622C4.94795 12.9548 5.7933 14.05 6.89125 14.7823C5.08337 15.416 3.45672 16.6 2.14874 18.2668C2.08746 18.3419 2.04076 18.4293 2.01138 18.5239C1.982 18.6184 1.97053 18.7184 1.97763 18.8178C1.98473 18.9172 2.01026 19.014 2.05274 19.1027C2.09522 19.1915 2.15379 19.2702 2.22502 19.3344C2.29625 19.3986 2.37872 19.4469 2.4676 19.4766C2.55648 19.5062 2.64999 19.5166 2.74266 19.5071C2.83533 19.4976 2.92531 19.4684 3.00733 19.4213C3.08935 19.3741 3.16176 19.3099 3.22034 19.2324C4.97831 16.9863 7.3999 15.7497 10.0342 15.7497C12.6686 15.7497 15.0902 16.9863 16.8516 19.2324C16.9712 19.3849 17.1424 19.4802 17.3276 19.4974C17.5128 19.5146 17.6969 19.4524 17.8392 19.3243C17.9815 19.1963 18.0705 19.0129 18.0866 18.8146C18.1027 18.6163 18.0446 18.4193 17.925 18.2668C16.6161 16.6 14.9895 15.416 13.186 14.7823ZM5.48172 9.37491C5.48172 8.41075 5.74872 7.46825 6.24895 6.66658C6.74919 5.86491 7.4602 5.24009 8.29206 4.87112C9.12393 4.50215 10.0393 4.40562 10.9224 4.59371C11.8055 4.78181 12.6167 5.2461 13.2534 5.92786C13.89 6.60962 14.3236 7.47824 14.4993 8.42387C14.6749 9.3695 14.5848 10.3497 14.2402 11.2404C13.8956 12.1312 13.3121 12.8926 12.5635 13.4282C11.8148 13.9639 10.9346 14.2498 10.0342 14.2498C8.82726 14.2483 7.67012 13.7342 6.81665 12.8203C5.96319 11.9064 5.48311 10.6673 5.48172 9.37491ZM21.9627 13.4126L21.5547 13.1604C21.6026 12.8891 21.6026 12.6105 21.5547 12.3392L21.9627 12.087C22.1236 11.9876 22.2411 11.8237 22.2892 11.6316C22.3373 11.4394 22.3121 11.2347 22.2192 11.0624C22.1264 10.8901 21.9734 10.7643 21.7939 10.7128C21.6145 10.6613 21.4232 10.6882 21.2623 10.7877L20.8535 11.0408C20.6578 10.861 20.4328 10.7215 20.1899 10.6292V10.1249C20.1899 9.92598 20.1161 9.73522 19.9847 9.59457C19.8534 9.45392 19.6752 9.37491 19.4895 9.37491C19.3037 9.37491 19.1256 9.45392 18.9942 9.59457C18.8629 9.73522 18.7891 9.92598 18.7891 10.1249V10.6292C18.5461 10.7215 18.3211 10.861 18.1255 11.0408L17.7166 10.7877C17.6369 10.7384 17.549 10.7065 17.4578 10.6936C17.3666 10.6808 17.2739 10.6873 17.185 10.7128C17.0962 10.7383 17.0129 10.7823 16.9399 10.8423C16.8669 10.9023 16.8057 10.977 16.7597 11.0624C16.7137 11.1477 16.6839 11.2419 16.6719 11.3395C16.6599 11.4372 16.666 11.5364 16.6898 11.6316C16.7136 11.7267 16.7547 11.8159 16.8107 11.8941C16.8667 11.9722 16.9366 12.0378 17.0162 12.087L17.4242 12.3392C17.3763 12.6105 17.3763 12.8891 17.4242 13.1604L17.0162 13.4126C16.8553 13.5121 16.7379 13.6759 16.6898 13.868C16.6417 14.0602 16.6668 14.265 16.7597 14.4373C16.8526 14.6096 17.0056 14.7353 17.185 14.7868C17.3645 14.8383 17.5557 14.8114 17.7166 14.7119L18.1255 14.4588C18.3211 14.6386 18.5461 14.7781 18.7891 14.8704V15.3747C18.7891 15.5736 18.8629 15.7644 18.9942 15.9051C19.1256 16.0457 19.3037 16.1247 19.4895 16.1247C19.6752 16.1247 19.8534 16.0457 19.9847 15.9051C20.1161 15.7644 20.1899 15.5736 20.1899 15.3747V14.8704C20.4328 14.7781 20.6578 14.6386 20.8535 14.4588L21.2623 14.7119C21.3687 14.778 21.4896 14.8127 21.6125 14.8123C21.7668 14.8123 21.9167 14.7579 22.0391 14.6574C22.1614 14.5568 22.2494 14.4159 22.2893 14.2564C22.3292 14.0968 22.3189 13.9277 22.2598 13.7751C22.2008 13.6225 22.0963 13.4951 21.9627 13.4126ZM18.7891 12.7498C18.7891 12.6015 18.8302 12.4565 18.9071 12.3331C18.9841 12.2098 19.0935 12.1137 19.2214 12.0569C19.3494 12.0002 19.4903 11.9853 19.6261 12.0142C19.762 12.0432 19.8868 12.1146 19.9847 12.2195C20.0827 12.3244 20.1494 12.458 20.1764 12.6035C20.2034 12.749 20.1896 12.8998 20.1365 13.0368C20.0835 13.1739 19.9938 13.291 19.8786 13.3734C19.7634 13.4558 19.628 13.4998 19.4895 13.4998C19.3037 13.4998 19.1256 13.4208 18.9942 13.2801C18.8629 13.1395 18.7891 12.9487 18.7891 12.7498Z" fill="#232440"/>
</g>
</svg>
