<svg width="25" height="25" viewBox="0 0 25 25" fill="none" xmlns="http://www.w3.org/2000/svg">
<g id="UserSwitch">
<path id="Vector" d="M22.0132 12.5973L20.1233 14.5978C20.0648 14.6598 19.9953 14.7089 19.9188 14.7425C19.8423 14.7761 19.7604 14.7933 19.6776 14.7933C19.5948 14.7933 19.5128 14.7761 19.4363 14.7425C19.3599 14.7089 19.2904 14.6598 19.2319 14.5978L17.3419 12.5973C17.2237 12.4722 17.1573 12.3025 17.1573 12.1255C17.1573 11.9486 17.2237 11.7789 17.3419 11.6537C17.4601 11.5286 17.6205 11.4583 17.7876 11.4583C17.9548 11.4583 18.1151 11.5286 18.2334 11.6537L19.0476 12.5164V12.1255C19.0483 10.5723 18.5833 9.05902 17.7194 7.80354C16.8555 6.54807 15.6374 5.61525 14.2406 5.13947C12.8438 4.66369 11.3404 4.66951 9.94689 5.15609C8.5534 5.64266 7.3418 6.58488 6.48662 7.84701C6.38909 7.9907 6.24163 8.0875 6.07667 8.1161C5.91171 8.14471 5.74277 8.10278 5.60702 7.99954C5.47126 7.89631 5.37982 7.74022 5.35279 7.56561C5.32577 7.391 5.36538 7.21219 5.46291 7.06849C6.47362 5.57691 7.90556 4.46342 9.55243 3.88843C11.1993 3.31344 12.9761 3.30663 14.6269 3.86899C16.2776 4.43134 17.7172 5.53383 18.738 7.01762C19.7589 8.50142 20.3085 10.2899 20.3076 12.1255V12.5164L21.1218 11.6537C21.24 11.5286 21.4003 11.4583 21.5675 11.4583C21.7347 11.4583 21.895 11.5286 22.0132 11.6537C22.1314 11.7789 22.1978 11.9486 22.1978 12.1255C22.1978 12.3025 22.1314 12.4722 22.0132 12.5973ZM18.7704 17.1817C17.7594 18.6721 16.3277 19.7846 14.6813 20.3589C13.035 20.9333 11.2589 20.9398 9.60882 20.3777C7.95872 19.8156 6.51968 18.7138 5.49885 17.2308C4.47802 15.7479 3.92806 13.9603 3.92813 12.1255V11.7346L3.11388 12.5973C2.99567 12.7224 2.83534 12.7927 2.66817 12.7927C2.501 12.7927 2.34067 12.7224 2.22246 12.5973C2.10425 12.4722 2.03784 12.3025 2.03784 12.1255C2.03784 11.9486 2.10425 11.7789 2.22246 11.6537L4.11239 9.65326C4.1709 9.59127 4.24038 9.54208 4.31686 9.50852C4.39334 9.47497 4.47532 9.45769 4.5581 9.45769C4.64089 9.45769 4.72287 9.47497 4.79935 9.50852C4.87583 9.54208 4.94531 9.59127 5.00381 9.65326L6.89375 11.6537C7.01196 11.7789 7.07837 11.9486 7.07837 12.1255C7.07837 12.3025 7.01196 12.4722 6.89375 12.5973C6.77554 12.7224 6.61521 12.7927 6.44804 12.7927C6.28087 12.7927 6.12054 12.7224 6.00233 12.5973L5.18808 11.7346V12.1255C5.18659 13.9211 5.81007 15.6543 6.93942 16.9941C7.64203 15.9165 8.62998 15.0827 9.77905 14.5978C9.16181 14.0832 8.71141 13.3778 8.49048 12.5797C8.26955 11.7816 8.28907 10.9305 8.54633 10.1447C8.80358 9.35886 9.28579 8.67744 9.92588 8.19516C10.566 7.71289 11.3321 7.45373 12.1178 7.45373C12.9035 7.45373 13.6697 7.71289 14.3098 8.19516C14.9499 8.67744 15.4321 9.35886 15.6894 10.1447C15.9466 10.9305 15.9661 11.7816 15.7452 12.5797C15.5243 13.3778 15.0739 14.0832 14.4566 14.5978C15.6068 15.0828 16.5954 15.9175 17.2978 16.9966C17.4571 16.8073 17.6072 16.6095 17.7475 16.404C17.845 16.2603 17.9925 16.1635 18.1574 16.1349C18.3224 16.1063 18.4913 16.1482 18.6271 16.2515C18.7628 16.3547 18.8543 16.5108 18.8813 16.6854C18.9083 16.86 18.8687 17.0388 18.7712 17.1825L18.7704 17.1817ZM12.1178 14.126C12.6162 14.126 13.1034 13.9695 13.5178 13.6765C13.9322 13.3834 14.2552 12.9668 14.4459 12.4794C14.6367 11.992 14.6866 11.4557 14.5893 10.9383C14.4921 10.4209 14.2521 9.94565 13.8997 9.57263C13.5473 9.1996 13.0983 8.94557 12.6095 8.84265C12.1206 8.73973 11.614 8.79255 11.1535 8.99443C10.6931 9.19631 10.2995 9.53819 10.0226 9.97682C9.74572 10.4155 9.59793 10.9311 9.59793 11.4587C9.59793 12.1661 9.86342 12.8445 10.336 13.3447C10.8086 13.845 11.4495 14.126 12.1178 14.126ZM12.1178 19.4606C13.6553 19.4584 15.1487 18.9164 16.3639 17.9194C15.9082 17.1649 15.2803 16.5441 14.5383 16.114C13.7962 15.6839 12.9638 15.4585 12.1178 15.4585C11.2718 15.4585 10.4395 15.6839 9.6974 16.114C8.95536 16.5441 8.32753 17.1649 7.87179 17.9194C9.08515 18.92 10.5797 19.4624 12.1178 19.4606Z" fill="#232440"/>
</g>
</svg>
