<svg width="28" height="28" viewBox="0 0 28 28" fill="none" xmlns="http://www.w3.org/2000/svg">
<g id="Withdraw">
<g id="Rectangle 202">
<g id="Group 137">
<path id="Vector" d="M13.9999 8.7782C11.5359 8.7782 9.53125 10.7828 9.53125 13.2469C9.53125 15.7109 11.5359 17.7156 13.9999 17.7156C16.464 17.7156 18.4686 15.7109 18.4686 13.2469C18.4686 10.7828 16.464 8.7782 13.9999 8.7782ZM13.9999 16.3093C12.3113 16.3093 10.9375 14.9355 10.9375 13.2469C10.9375 11.5583 12.3113 10.1844 13.9999 10.1844C15.6885 10.1844 17.0624 11.5581 17.0624 13.2469C17.0624 14.9355 15.6885 16.3093 13.9999 16.3093Z" fill="#FEBC11"/>
<path id="Vector_2" d="M25.1323 2.86774C24.5729 2.30817 23.8289 2 23.0375 2H4.96246C4.17108 2 3.42712 2.30817 2.86774 2.86774C2.30817 3.42712 2 4.17108 2 4.96246V7.9751C2 8.7663 2.30817 9.51025 2.86774 10.0698C3.42731 10.6294 4.17126 10.9376 4.96246 10.9376H6.51868V23.7906C6.51868 24.3808 6.74847 24.9356 7.16577 25.3529C7.58307 25.7702 8.13788 26 8.72803 26H19.272C19.8621 26 20.4169 25.7702 20.8342 25.3529C21.2513 24.9356 21.4813 24.3808 21.4813 23.7906V10.9374H23.0375C23.8289 10.9374 24.5729 10.6294 25.1323 10.0698C25.6918 9.51025 26 8.7663 26 7.9751V4.96246C26 4.17108 25.6918 3.42712 25.1323 2.86774V2.86774ZM20.0751 23.7906C20.0751 24.0052 19.9914 24.2068 19.8398 24.3585C19.6882 24.5103 19.4864 24.5938 19.272 24.5938H8.72803C8.51361 24.5938 8.31183 24.5103 8.16022 24.3585C8.00861 24.2068 7.92493 24.0051 7.92493 23.7906V7.17181H20.0751V23.7906ZM24.5938 7.9751C24.5938 8.39075 24.4319 8.78149 24.1378 9.07538C23.8439 9.36945 23.4532 9.53131 23.0375 9.53131H21.4811V7.172H22.2844C22.6726 7.172 22.9875 6.85706 22.9875 6.46887C22.9875 6.08051 22.6726 5.76575 22.2844 5.76575H5.71558C5.32739 5.76575 5.01245 6.08051 5.01245 6.46887C5.01245 6.85706 5.32739 7.172 5.71558 7.172H6.51868V9.53131H4.96246C4.54681 9.53131 4.15607 9.36945 3.862 9.07538C3.56812 8.78149 3.40625 8.39075 3.40625 7.9751V4.96246C3.40625 4.54681 3.56812 4.15607 3.86218 3.862C4.15607 3.56812 4.54681 3.40625 4.96246 3.40625H23.0375C23.4532 3.40625 23.8439 3.56812 24.138 3.86218C24.4319 4.15607 24.5938 4.54681 24.5938 4.96246V7.9751Z" fill="#665AF0"/>
<path id="Vector_3" d="M17.7655 20.8281H10.2344C9.84601 20.8281 9.53125 21.1429 9.53125 21.5312C9.53125 21.9194 9.84601 22.2344 10.2344 22.2344H17.7655C18.1539 22.2344 18.4686 21.9194 18.4686 21.5312C18.4686 21.1429 18.1539 20.8281 17.7655 20.8281Z" fill="#665AF0"/>
<circle id="Ellipse 123" cx="14.2921" cy="13.2487" r="4.46609" fill="#FEBC11"/>
</g>
</g>
</g>
</svg>
