<svg width="80" height="80" viewBox="0 0 80 80" fill="none" xmlns="http://www.w3.org/2000/svg">
<g clip-path="url(#clip0_1485_3077)">
<path d="M26.5662 77.5458C28.1933 79.1328 30.354 80.0061 32.6525 80.0061C34.951 80.0061 37.1118 79.1328 38.7388 77.5458L68.869 48.1575L65.8259 45.1893L32.6525 12.8328L22.7827 3.20605L16.6964 9.14249L26.5662 18.7693L2.52233 42.2211C0.895298 43.8081 0 45.9156 0 48.1575C0 50.3994 0.895298 52.507 2.52233 54.094L26.5662 77.5458ZM32.6525 24.7057L56.6964 48.1575H8.60863L32.6525 24.7057Z" fill="white"/>
<path opacity="0.5" d="M62.7852 67.0442C62.7852 61.0952 70.9978 52.6188 71.3938 52.3501C71.7898 52.6188 80.0024 60.7468 80.0024 67.0442C80.0024 73.7994 75.2935 77.7248 71.3938 77.5401C66.8699 77.3218 62.7852 73.3165 62.7852 67.0442Z" fill="white"/>
</g>
<defs>
<clipPath id="clip0_1485_3077">
<rect width="80" height="80" fill="white"/>
</clipPath>
</defs>
</svg>
