<svg width="80" height="80" viewBox="0 0 80 80" fill="none" xmlns="http://www.w3.org/2000/svg">
<path d="M51.9895 39.9915C51.9895 46.3469 46.6119 51.499 39.9783 51.499C33.3447 51.499 27.9671 46.3469 27.9671 39.9915C27.9671 33.636 33.3447 28.484 39.9783 28.484C46.6119 28.484 51.9895 33.6361 51.9895 39.9915ZM40 16.0312C33.1317 16.0617 26.0124 17.7338 19.2731 20.935C14.2692 23.4098 9.39267 26.9014 5.1596 31.2111C3.08053 33.411 0.428733 36.5965 0 39.9952C0.0506667 42.9393 3.20867 46.5732 5.1596 48.7794C9.12913 52.9198 13.8787 56.314 19.2731 59.058C25.5578 62.1081 32.5141 63.8642 40 63.9618C46.8749 63.9309 53.9925 62.2396 60.7244 59.058C65.7283 56.5832 70.6073 53.0891 74.8404 48.7794C76.9194 46.5795 79.5712 43.394 80 39.9952C79.9493 37.0512 76.7913 33.4172 74.8404 31.211C70.8709 27.0706 66.1188 23.679 60.7244 20.9349C54.4429 17.8872 47.4695 16.1432 40 16.0312ZM39.9949 21.9811C50.4029 21.9811 58.8399 30.0474 58.8399 39.9978C58.8399 49.9482 50.4029 58.0145 39.9949 58.0145C29.587 58.0145 21.1499 49.9482 21.1499 39.9978C21.1499 30.0474 29.587 21.9811 39.9949 21.9811Z" fill="white"/>
</svg>
