<svg width="80" height="80" viewBox="0 0 80 80" fill="none" xmlns="http://www.w3.org/2000/svg">
<g clip-path="url(#clip0_1485_3068)">
<path d="M65.098 23.902H36.2353L30.4941 17.0785C30.301 16.8464 30.0116 16.7162 29.7098 16.7256H6.42353C2.86823 16.7515 0 19.6409 0 23.1962V65.1648C0.00431373 68.7322 2.89529 71.6232 6.46274 71.6275H65.098C68.6655 71.6232 71.5565 68.7322 71.5608 65.1648V30.3648C71.5565 26.7973 68.6655 23.9064 65.098 23.902Z" fill="white"/>
<path opacity="0.5" d="M73.5784 15.5583H44.7078L38.9666 8.73477C38.7735 8.50261 38.4841 8.37241 38.1823 8.38182H14.9039C11.678 8.38712 8.95015 10.7703 8.51172 13.9661H29.7431C30.8564 13.9634 31.9135 14.4548 32.6294 15.3073L37.5313 21.1348H65.0999C70.199 21.1434 74.3305 25.275 74.3392 30.374V63.221C77.5721 62.8177 79.9994 60.0712 80.0019 56.8132V22.0132C79.9935 18.464 77.1274 15.5842 73.5784 15.5583Z" fill="white"/>
</g>
<defs>
<clipPath id="clip0_1485_3068">
<rect width="80" height="80" fill="white"/>
</clipPath>
</defs>
</svg>
