<svg width="49" height="48" viewBox="0 0 49 48" fill="none" xmlns="http://www.w3.org/2000/svg">
<rect x="0.5" width="48" height="48" rx="12" fill="#FEBC11"/>
<g clip-path="url(#clip0_1485_2697)">
<path d="M36.6715 18.073C37.241 18.073 37.7027 17.6113 37.7027 17.0419V15.9592C37.7027 13.1143 35.3878 10.7998 32.5425 10.7998C32.5425 10.7998 16.3773 10.8022 16.3375 10.8069C14.9768 10.8545 13.6697 11.4383 12.7276 12.4253C11.7619 13.437 11.2584 14.7529 11.3058 16.1374C11.3038 16.1637 11.3028 31.0093 11.3028 31.0093C11.3028 34.4228 14.0803 37.1998 17.4942 37.1998H32.5426C35.3879 37.1998 37.7027 34.8853 37.7027 32.0404V24.2119C37.7027 21.367 35.3879 19.0525 32.5426 19.0525H16.459C14.8033 19.0525 13.4458 17.7586 13.3687 16.1068C13.3294 15.2668 13.6316 14.465 14.2195 13.8491C14.816 13.2242 15.6536 12.8659 16.5176 12.8659C16.548 12.8659 32.5425 12.862 32.5425 12.862C34.2505 12.862 35.6401 14.2514 35.6401 15.9592V17.0419C35.6402 17.6113 36.1019 18.073 36.6715 18.073ZM16.459 21.1147H32.5425C34.2506 21.1147 35.6402 22.5041 35.6402 24.2119V32.0404C35.6402 33.7482 34.2506 35.1376 32.5425 35.1376H17.4942C15.2175 35.1376 13.3653 33.2857 13.3653 31.0093V20.0878C14.2278 20.7338 15.2996 21.1147 16.459 21.1147ZM33.5777 28.1262C33.5777 28.838 33.0006 29.415 32.2887 29.415C30.5788 29.3471 30.5792 26.9049 32.2887 26.8373C33.0006 26.8373 33.5777 27.4143 33.5777 28.1262ZM33.5777 15.9592C33.5777 15.3897 33.1161 14.9281 32.5465 14.9281H16.459C15.0908 14.9826 15.0918 16.9363 16.459 16.9903H32.5465C33.116 16.9903 33.5777 16.5287 33.5777 15.9592Z" fill="white"/>
</g>
<defs>
<clipPath id="clip0_1485_2697">
<rect width="26.4" height="26.4" fill="white" transform="translate(11.3008 10.7998)"/>
</clipPath>
</defs>
</svg>
