<svg width="80" height="80" viewBox="0 0 80 80" fill="none" xmlns="http://www.w3.org/2000/svg">
<path opacity="0.5" d="M60 71.2031H76.052C77.1038 71.1894 78.1079 70.762 78.8469 70.0133C79.5858 69.2647 80.0001 68.255 80 67.2031V43.2031C80 42.1423 79.5786 41.1248 78.8284 40.3747C78.0783 39.6246 77.0609 39.2031 76 39.2031H60C58.9391 39.2031 57.9217 39.6246 57.1716 40.3747C56.4214 41.1248 56 42.1423 56 43.2031V67.2031C56 68.264 56.4214 69.2814 57.1716 70.0316C57.9217 70.7817 58.9391 71.2031 60 71.2031Z" fill="white"/>
<path d="M48 59.2031V43.2031C48 40.0205 49.2643 36.9683 51.5147 34.7178C53.7652 32.4674 56.8174 31.2031 60 31.2031H72V19.2031C72 16.0191 70.736 12.9671 68.484 10.7191C67.3705 9.60404 66.048 8.71951 64.5922 8.11619C63.1364 7.51287 61.5759 7.20259 60 7.20313H12C8.816 7.20313 5.764 8.46713 3.516 10.7191C2.40091 11.8326 1.51639 13.1552 0.913064 14.611C0.309741 16.0668 -0.000534265 17.6273 6.90571e-07 19.2031V47.2031C6.90571e-07 50.3871 1.264 53.4391 3.516 55.6871C4.62952 56.8022 5.95204 57.6867 7.40784 58.2901C8.86364 58.8934 10.4241 59.2037 12 59.2031H32V63.2031H28C26.9391 63.2031 25.9217 63.6245 25.1716 64.3747C24.4214 65.1248 24 66.1423 24 67.2031C24 68.264 24.4214 69.2814 25.1716 70.0315C25.9217 70.7817 26.9391 71.2031 28 71.2031H44C45.0609 71.2031 46.0783 70.7817 46.8284 70.0315C47.5786 69.2814 48 68.264 48 67.2031C48 66.1423 47.5786 65.1248 46.8284 64.3747C46.0783 63.6245 45.0609 63.2031 44 63.2031H40V59.2031H48Z" fill="white"/>
</svg>
