<svg width="80" height="80" viewBox="0 0 80 80" fill="none" xmlns="http://www.w3.org/2000/svg">
<g clip-path="url(#clip0_1485_3062)">
<path d="M3.2471 79.9117L18.7569 74.8264C19.3238 74.6403 19.8399 74.3272 20.2545 73.9041L56.6048 37.3424L42.1272 22.8564L5.87005 59.3251C5.39621 59.8074 5.05776 60.4082 4.88853 61.0683L0.725517 77.568C0.3533 79.0487 1.79174 80.394 3.2471 79.9117Z" fill="white"/>
<path opacity="0.56" d="M77.9946 8.67212L70.6669 1.34454C68.8986 -0.423896 65.3109 -0.44928 63.5763 1.27685L45.7058 19.2489L60.1917 33.7348L65.8185 28.0741L68.56 30.8325C69.22 31.4925 69.2116 32.5671 68.56 33.2271L64.1178 37.6609L60.5217 41.2485L45.4688 56.259C44.1489 57.579 44.1404 59.7196 45.4604 61.0481C46.1204 61.7081 46.9919 62.0381 47.855 62.0381C48.718 62.0381 49.5811 61.7081 50.2495 61.0481L73.3407 38.0077C76.6407 34.7162 76.6492 29.3517 73.3577 26.0518L70.5908 23.268L78.0538 15.7627C79.7884 14.0283 79.763 10.4406 77.9946 8.67212Z" fill="white"/>
</g>
<defs>
<clipPath id="clip0_1485_3062">
<rect width="80" height="80" fill="white"/>
</clipPath>
</defs>
</svg>
